<svg width="122" height="122" viewBox="0 0 122 122" fill="none" xmlns="http://www.w3.org/2000/svg">
<circle cx="61" cy="61" r="61" fill="#3D3D3C"/>
<path d="M89.4093 27C88.569 27 87.7444 27.2337 87.0266 27.6763L76.8858 33.9221C72.1404 29.4624 65.9793 27 59.5 27C45.3862 27 33.9032 38.6494 33.9032 52.9677C33.9032 55.3003 34.2249 57.6013 34.8258 59.8289L28.3899 63.7929C26.2988 65.0811 25 67.4216 25 69.9032C25 71.7706 26.498 73.2903 28.3387 73.2903C30.1795 73.2903 31.6774 71.7706 31.6774 69.9032V69.4392L37.4723 66.1853C42.0697 74.0547 50.481 78.9355 59.5 78.9355C60.5428 78.9355 61.5689 78.8644 62.5794 78.7413C63.0212 78.8553 63.4753 78.9355 63.9516 78.9355H78.4194C80.2601 78.9355 81.7581 80.4552 81.7581 82.3226C81.7581 84.19 80.2601 85.7097 78.4194 85.7097H47.2581C44.1898 85.7097 41.6935 88.2421 41.6935 91.3548C41.6935 94.4676 44.1898 97 47.2581 97H79.5323V94.7419H47.2581C45.4173 94.7419 43.9194 93.2223 43.9194 91.3548C43.9194 89.4874 45.4173 87.9677 47.2581 87.9677H78.4194C81.4876 87.9677 83.9839 85.4353 83.9839 82.3226C83.9839 79.2098 81.4876 76.6774 78.4194 76.6774H69.9201C78.8534 72.6208 85.0968 63.5231 85.0968 52.9677C85.0968 48.8084 84.103 44.7156 82.2333 41.0474L91.6317 35.7692C93.093 34.9495 94 33.3881 94 31.6573C94 29.0898 91.94 27 89.4093 27ZM81.7581 54.2718L82.7764 54.8679C82.6796 56.0918 82.4881 57.2852 82.2155 58.4503L78.4194 56.2273L81.7581 54.2718ZM76.1935 57.5313L81.5755 60.6835C81.2072 61.7663 80.7687 62.8152 80.2556 63.8211L72.8548 59.4856L76.1935 57.5313ZM66.1774 75.6794V30.246C67.3248 30.5926 68.4355 31.0431 69.5161 31.5635V74.3584C68.4422 74.8766 67.3326 75.3282 66.1774 75.6794ZM71.7419 71.8711V67.9602L75.528 70.1776C74.6633 71.0074 73.744 71.7785 72.7625 72.4684L71.7419 71.8711ZM71.7419 65.3521V61.4411L79.1383 65.7732C78.5284 66.7329 77.8518 67.6406 77.1161 68.4987L71.7419 65.3521ZM71.7419 34.0644L72.758 33.4694C73.4948 33.9865 74.2048 34.5476 74.8859 35.1539L71.7419 37.0902V34.0644ZM37.2419 51.6637L36.2236 51.0676C36.3205 49.8437 36.5119 48.6503 36.7845 47.4852L40.5806 49.7082L37.2419 51.6637ZM42.8065 48.4042L37.4245 45.2519C37.7928 44.1692 38.2313 43.1203 38.7444 42.1144L46.1452 46.4498L42.8065 48.4042ZM47.2581 34.0644V37.9753L43.472 35.7579C44.3367 34.9281 45.256 34.1569 46.2375 33.4671L47.2581 34.0644ZM47.2581 40.5834V44.4944L39.8617 40.1623C40.4716 39.2026 41.1482 38.2948 41.8839 37.4368L47.2581 40.5834ZM47.2581 71.8711L46.2398 72.4673C45.2582 71.7819 44.33 71.0176 43.4586 70.1855L47.2581 67.9602V71.8711ZM36.2069 54.8781L47.2581 48.4053V52.1706L36.8046 58.6095C36.5096 57.3856 36.3071 56.1392 36.2069 54.8781ZM29.4516 68.1092V69.9032C29.4516 70.5253 28.9519 71.0323 28.3387 71.0323C27.7255 71.0323 27.2258 70.5253 27.2258 69.9032C27.2258 68.2063 28.1139 66.6042 29.544 65.7235L47.2581 54.8126V58.1082L29.4516 68.1092ZM47.2581 60.6903V65.3532L41.8627 68.5134C40.9568 67.4589 40.1399 66.314 39.421 65.0913L47.2581 60.6903ZM55.0484 76.2348V34.9032H52.8226V75.6692C51.6763 75.3203 50.56 74.8868 49.4839 74.3674V31.5782C50.5578 31.0589 51.6674 30.6073 52.8226 30.2561V32.6452H55.0484V29.7018C56.1357 29.4884 57.253 29.3698 58.3871 29.3156V69.9032H60.6129V29.3111C61.7403 29.3653 62.8576 29.4748 63.9516 29.6894V76.2337C63.5421 76.3139 63.1236 76.3692 62.7063 76.4268C61.481 75.9255 60.6129 74.7106 60.6129 73.2903V72.1613H58.3871V73.2903C58.3871 74.565 58.8222 75.7302 59.5278 76.6763C59.5178 76.6763 59.5089 76.6774 59.5 76.6774C57.9909 76.6774 56.5018 76.5239 55.0484 76.2348ZM81.5956 45.2406L79.4087 46.521L80.5216 48.4765L82.2255 47.4784C82.5004 48.6537 82.6907 49.8505 82.7864 51.0597L71.7419 57.5302V53.6192L78.7666 49.505L77.6537 47.5495L71.7419 51.0123V46.9398L80.2868 42.1415C80.7943 43.1429 81.235 44.1771 81.5956 45.2406ZM90.5545 33.7934L71.7419 44.3589V39.7332L88.1806 29.6069C88.5512 29.3789 88.9752 29.2581 89.4093 29.2581C90.7125 29.2581 91.7742 30.3352 91.7742 31.6945C91.7742 32.5673 91.3068 33.3711 90.5545 33.7934Z" fill="#F2F2F2"/>
</svg>
