<svg width="122" height="122" viewBox="0 0 122 122" fill="none" xmlns="http://www.w3.org/2000/svg">
<circle cx="61" cy="61" r="61" fill="#3D3D3C"/>
<path d="M52.598 51.0013C51.9853 47.9613 49.3166 45.6666 46.1277 45.6666C42.9387 45.6666 40.27 47.9613 39.6573 51.0013C35.993 50.8733 32.9229 53.9466 32.9229 57.6666C32.9229 60.2013 34.3728 62.4613 36.5185 63.5773C35.8992 64.6013 35.5638 65.7813 35.5638 67C35.5638 70.676 38.5257 73.6666 42.1662 73.6666C43.6003 73.6666 44.9894 73.1826 46.1277 72.308C47.2659 73.1826 48.6551 73.6666 50.0891 73.6666C53.7297 73.6666 56.6915 70.676 56.6915 67C56.6915 65.7813 56.3561 64.6013 55.7368 63.5773C57.8826 62.4613 59.3325 60.2013 59.3325 57.6666C59.3325 53.9466 56.2663 50.884 52.598 51.0013ZM53.2781 61.6053C52.7604 61.6786 52.3352 62.052 52.1913 62.5586C52.0474 63.0666 52.2138 63.6106 52.6139 63.9493C53.5263 64.72 54.0505 65.832 54.0505 67C54.0505 69.2053 52.2732 71 50.0891 71C48.9482 71 47.8945 70.508 47.122 69.616C46.8711 69.3266 46.5093 69.16 46.1277 69.16C45.746 69.16 45.3842 69.3266 45.1333 69.616C44.3609 70.508 43.3071 71 42.1662 71C39.9821 71 38.2048 69.2053 38.2048 67C38.2048 65.832 38.729 64.72 39.6415 63.9493C40.0429 63.6106 40.208 63.0666 40.064 62.5586C39.9201 62.052 39.4936 61.6786 38.9773 61.6053C37.0309 61.3306 35.5638 59.6386 35.5638 57.6666C35.5638 55.4613 37.3412 53.6666 39.5253 53.6666C39.8224 53.6666 40.1406 53.7146 40.5275 53.8173C40.9329 53.9253 41.3647 53.8333 41.6909 53.568C42.0183 53.304 42.2006 52.8973 42.1847 52.476C42.1807 52.396 42.1702 52.3333 42.1662 52.3333C42.1662 50.128 43.9436 48.3333 46.1277 48.3333C48.3117 48.3333 50.0891 50.128 50.0917 52.2506C50.0851 52.2946 50.0719 52.4306 50.0706 52.476C50.0534 52.8973 50.237 53.304 50.5645 53.568C50.8906 53.832 51.3224 53.924 51.7278 53.8173C52.1147 53.7146 52.4329 53.6666 52.7301 53.6666C54.9141 53.6666 56.6915 55.4613 56.6915 57.6666C56.6915 59.6386 55.2244 61.3306 53.2781 61.6053Z" fill="#F2F2F2"/>
<path d="M46.1277 56.3334C43.9436 56.3334 42.1662 58.128 42.1662 60.3334C42.1662 62.5387 43.9436 64.3334 46.1277 64.3334C48.3117 64.3334 50.0891 62.5387 50.0891 60.3334C50.0891 58.128 48.3117 56.3334 46.1277 56.3334ZM46.1277 61.6667C45.4001 61.6667 44.8072 61.0694 44.8072 60.3334C44.8072 59.5974 45.4001 59 46.1277 59C46.8553 59 47.4481 59.5974 47.4481 60.3334C47.4481 61.0694 46.8553 61.6667 46.1277 61.6667Z" fill="#F2F2F2"/>
<path d="M68.5758 65.6666H65.9349V68.3333H68.5758V65.6666Z" fill="#F2F2F2"/>
<path d="M68.5758 71H65.9349V73.6667H68.5758V71Z" fill="#F2F2F2"/>
<path d="M68.5758 76.3334H65.9349V79H68.5758V76.3334Z" fill="#F2F2F2"/>
<path d="M68.5758 81.6666H65.9349V84.3333H68.5758V81.6666Z" fill="#F2F2F2"/>
<path d="M63.2939 81.6666H60.653V84.3333H63.2939V81.6666Z" fill="#F2F2F2"/>
<path d="M58.012 81.6666H55.371V84.3333H58.012V81.6666Z" fill="#F2F2F2"/>
<path d="M52.7301 81.6666H50.0891V84.3333H52.7301V81.6666Z" fill="#F2F2F2"/>
<path d="M47.4482 81.6666H44.8072V84.3333H47.4482V81.6666Z" fill="#F2F2F2"/>
<path d="M47.4482 76.3334H44.8072V79H47.4482V76.3334Z" fill="#F2F2F2"/>
<path d="M102.521 26.0573C100.551 24.068 97.3425 24.068 95.3723 26.0573L92.6904 28.7653C89.5001 26.812 85.7751 25.6667 81.7806 25.6667V28.3333C85.0435 28.3333 88.107 29.1987 90.7704 30.704L90.0904 31.3907C88.4438 33.052 88.1929 35.5773 89.2955 37.5267L85.2376 41.624C81.4835 37.264 76.6783 33.8533 71.2155 31.812V27H72.5359C74.2552 27 75.7077 25.8813 76.2544 24.3333H81.7806V21.6667H76.2557C75.7091 20.1187 74.2565 19 72.5373 19H67.2553C65.5361 19 64.0836 20.1187 63.5369 21.6667H56.6915V20.3333C56.6915 19.596 56.0999 19 55.371 19H42.1662C41.4373 19 40.8458 19.596 40.8458 20.3333V25.6667C40.8458 26.404 41.4373 27 42.1662 27H47.4482V31.8107C34.3569 36.7027 25 49.4347 25 64.3333C25 83.4493 40.4021 99 59.3325 99C78.2629 99 93.6649 83.4493 93.6649 64.3333C93.6649 56.6133 91.1507 49.476 86.908 43.708L91.1639 39.4107C91.9377 39.8573 92.7974 40.1013 93.6649 40.1013C94.959 40.1013 96.2544 39.604 97.2395 38.6093L97.9195 37.9227C99.4103 40.612 100.267 43.7053 100.267 47V83H102.908V47C102.908 42.9667 101.774 39.2053 99.8395 35.984L102.521 33.276C104.493 31.2867 104.493 28.0467 102.521 26.0573ZM67.2553 21.6667H72.5373C73.2648 21.6667 73.8577 22.264 73.8577 23C73.8577 23.736 73.2648 24.3333 72.5373 24.3333H69.8963H67.2553C66.5278 24.3333 65.9349 23.736 65.9349 23C65.9349 22.264 66.5278 21.6667 67.2553 21.6667ZM43.4867 21.6667H54.0505V23V24.3333H48.7686H43.4867V21.6667ZM50.0891 30.948V27H55.371C56.0999 27 56.6915 26.404 56.6915 25.6667V24.3333H63.5197C63.5356 24.3787 63.5593 24.4187 63.5765 24.4627C63.6055 24.536 63.6386 24.6067 63.6716 24.6787C63.7402 24.828 63.8168 24.9707 63.9026 25.1093C63.9436 25.1747 63.9819 25.24 64.0255 25.3027C64.1364 25.4613 64.2592 25.6093 64.3912 25.7493C64.419 25.7787 64.4414 25.812 64.4705 25.84C64.6342 26.004 64.8125 26.1507 65.0026 26.284C65.0554 26.3213 65.1122 26.3507 65.1677 26.3853C65.3116 26.476 65.4595 26.5587 65.6153 26.6307C65.6879 26.664 65.7606 26.6933 65.8345 26.7227C65.989 26.7827 66.1488 26.832 66.3112 26.872C66.3838 26.8893 66.4538 26.9107 66.5278 26.9253C66.7641 26.9707 67.0058 27 67.2553 27H68.5758V30.948C68.5322 30.936 68.4873 30.928 68.4425 30.9147C67.0507 30.5267 65.6232 30.2253 64.1667 30.016C64.0109 29.9933 63.8538 29.976 63.6967 29.956C63.1434 29.884 62.5848 29.8267 62.0236 29.7827C61.8335 29.768 61.6446 29.7507 61.4558 29.7387C60.7533 29.696 60.0468 29.6667 59.3325 29.6667C58.6181 29.6667 57.9116 29.696 57.2078 29.74C57.0177 29.752 56.8288 29.7693 56.64 29.784C56.0788 29.828 55.5216 29.8853 54.967 29.9573C54.8098 29.9773 54.654 29.9947 54.4969 30.0173C53.0404 30.2253 51.6143 30.528 50.2212 30.916C50.1776 30.928 50.1327 30.936 50.0891 30.948ZM91.024 64.3333C91.024 81.9773 76.8064 96.3333 59.3325 96.3333C41.8586 96.3333 27.641 81.9773 27.641 64.3333C27.641 50.216 36.7457 38.2133 49.3338 33.9747C51.7344 33.1693 54.2169 32.6587 56.7206 32.4507C56.7509 32.448 56.7813 32.4467 56.813 32.444C58.49 32.3093 60.1763 32.3093 61.8546 32.444C61.885 32.4467 61.9153 32.448 61.947 32.4507C64.4506 32.6587 66.9332 33.1693 69.3338 33.9747C74.8362 35.828 79.6692 39.1627 83.3705 43.512L66.3218 60.724L68.1889 62.6093L85.0158 45.6187C88.7897 50.8867 91.024 57.3493 91.024 64.3333ZM95.3723 36.724C94.4308 37.6747 92.8991 37.6747 91.9576 36.724C91.0161 35.7733 91.0161 34.2267 91.9576 33.276L93.0139 32.2093C94.2961 33.2053 95.4423 34.3627 96.4287 35.6573L95.3723 36.724ZM100.654 31.3907L98.313 33.7547C97.3081 32.4773 96.1633 31.3227 94.8983 30.3067L97.2395 27.9427C97.7096 27.468 98.3289 27.2307 98.9469 27.2307C99.5648 27.2307 100.184 27.468 100.654 27.9427C101.596 28.8933 101.596 30.44 100.654 31.3907Z" fill="#F2F2F2"/>
<path d="M102.908 91H100.267V93.6667H102.908V91Z" fill="#F2F2F2"/>
<path d="M102.908 96.3333H100.267V98.9999H102.908V96.3333Z" fill="#F2F2F2"/>
<path d="M102.908 85.6666H100.267V88.3333H102.908V85.6666Z" fill="#F2F2F2"/>
</svg>
