<svg width="122" height="122" viewBox="0 0 122 122" fill="none" xmlns="http://www.w3.org/2000/svg">
<circle cx="61" cy="61" r="61" fill="#3D3D3C"/>
<path fill-rule="evenodd" clip-rule="evenodd" d="M27.6739 54.2971C29.1332 47.4828 32.8622 41.2363 38.0505 36.5312C62.0464 14.7903 99.9047 36.6123 93.4193 68.2502C91.8791 75.7135 87.7446 82.5278 81.8267 87.3952C57.3445 107.757 20.9454 85.286 27.6739 54.2971ZM24.9177 69.3048C26.539 76.687 30.5113 83.4201 36.186 88.5309C62.3706 112.219 103.634 88.0441 96.0945 53.7292C94.7164 47.5639 91.7169 41.8042 87.5014 37.0991C62.5328 9.4362 16.9731 33.0429 24.9177 69.3048Z" fill="#F2F2F2"/>
<path fill-rule="evenodd" clip-rule="evenodd" d="M83.1238 79.9319C83.1238 80.7431 83.7723 81.4732 84.6641 81.4732C85.4748 81.4732 86.2044 80.8242 86.2044 79.9319C86.2044 79.1207 85.5558 78.3906 84.6641 78.3906C83.7723 78.3906 83.1238 79.1207 83.1238 79.9319ZM77.0438 73.8477C77.0438 74.6589 77.6923 75.389 78.5841 75.389C79.3947 75.389 80.1243 74.74 80.1243 73.8477C80.1243 73.0365 79.4758 72.3064 78.5841 72.3064C77.6923 72.3064 77.0438 73.0365 77.0438 73.8477ZM83.1238 73.8477C83.1238 74.6589 83.7723 75.389 84.6641 75.389C85.4748 75.389 86.2044 74.74 86.2044 73.8477C86.2044 73.0365 85.5558 72.3064 84.6641 72.3064C83.7723 72.3064 83.1238 73.0365 83.1238 73.8477ZM89.2038 73.8477C89.2038 74.6589 89.8524 75.389 90.7441 75.389C91.5548 75.389 92.2844 74.74 92.2844 73.8477C92.2844 73.0365 91.6359 72.3064 90.7441 72.3064C89.8524 72.3064 89.2038 73.0365 89.2038 73.8477ZM70.9637 67.7635C70.9637 68.5747 71.6123 69.3048 72.504 69.3048C73.3147 69.3048 74.0443 68.6558 74.0443 67.7635C74.0443 66.9523 73.3958 66.2222 72.504 66.2222C71.6123 66.2222 70.9637 66.9523 70.9637 67.7635ZM77.0438 67.7635C77.0438 68.5747 77.6923 69.3048 78.5841 69.3048C79.3947 69.3048 80.1243 68.6558 80.1243 67.7635C80.1243 66.9523 79.4758 66.2222 78.5841 66.2222C77.6923 66.2222 77.0438 66.9523 77.0438 67.7635ZM83.1238 67.7635C83.1238 68.5747 83.7723 69.3048 84.6641 69.3048C85.4748 69.3048 86.2044 68.6558 86.2044 67.7635C86.2044 66.9523 85.5558 66.2222 84.6641 66.2222C83.7723 66.2222 83.1238 66.9523 83.1238 67.7635ZM89.2038 67.7635C89.2038 68.5747 89.8524 69.3048 90.7441 69.3048C91.5548 69.3048 92.2844 68.6558 92.2844 67.7635C92.2844 66.9523 91.6359 66.2222 90.7441 66.2222C89.8524 66.2222 89.2038 66.9523 89.2038 67.7635ZM64.8837 61.6793C64.8837 62.4905 65.5323 63.2206 66.424 63.2206C67.3157 63.2206 67.9643 62.5716 67.9643 61.6793C67.9643 60.8681 67.3157 60.138 66.424 60.138C65.5323 60.138 64.8837 60.8681 64.8837 61.6793ZM70.9637 61.6793C70.9637 62.4905 71.6123 63.2206 72.504 63.2206C73.3147 63.2206 74.0443 62.5716 74.0443 61.6793C74.0443 60.8681 73.3958 60.138 72.504 60.138C71.6123 60.138 70.9637 60.8681 70.9637 61.6793ZM77.0438 61.6793C77.0438 62.4905 77.6923 63.2206 78.5841 63.2206C79.3947 63.2206 80.1243 62.5716 80.1243 61.6793C80.1243 60.8681 79.4758 60.138 78.5841 60.138C77.6923 60.138 77.0438 60.8681 77.0438 61.6793ZM83.1238 61.6793C83.1238 62.4905 83.7723 63.2206 84.6641 63.2206C85.4748 63.2206 86.2044 62.5716 86.2044 61.6793C86.2044 60.8681 85.5558 60.138 84.6641 60.138C83.7723 60.138 83.1238 60.8681 83.1238 61.6793ZM89.2038 61.6793C89.2038 62.4905 89.8524 63.2206 90.7441 63.2206C91.5548 63.2206 92.2844 62.5716 92.2844 61.6793C92.2844 60.8681 91.6359 60.138 90.7441 60.138C89.8524 60.138 89.2038 60.8681 89.2038 61.6793ZM58.8037 55.5951C58.8037 56.4063 59.4522 57.1364 60.344 57.1364C61.1546 57.1364 61.8842 56.4874 61.8842 55.5951C61.8842 54.7838 61.2357 54.0537 60.344 54.0537C59.4522 54.0537 58.8037 54.7838 58.8037 55.5951ZM77.0438 55.5951C77.0438 56.4063 77.6923 57.1364 78.5841 57.1364C79.3947 57.1364 80.1243 56.4874 80.1243 55.5951C80.1243 54.7838 79.4758 54.0537 78.5841 54.0537C78.3409 54.0537 78.0976 54.1349 77.9355 54.216C77.6923 54.3782 77.5302 54.6216 77.287 54.7838C77.1248 55.0272 77.0438 55.2706 77.0438 55.5951ZM83.1238 55.5951C83.1238 56.4063 83.7723 57.1364 84.6641 57.1364C85.4748 57.1364 86.2044 56.4874 86.2044 55.5951C86.2044 54.7838 85.5558 54.0537 84.6641 54.0537C83.7723 54.0537 83.1238 54.7838 83.1238 55.5951ZM89.2038 55.5951C89.2038 56.4063 89.8524 57.1364 90.7441 57.1364C91.5548 57.1364 92.2844 56.4874 92.2844 55.5951C92.2844 54.7838 91.6359 54.0537 90.7441 54.0537C89.8524 54.0537 89.2038 54.7838 89.2038 55.5951ZM52.7237 49.5109C52.7237 50.3221 53.3722 51.0522 54.2639 51.0522C55.1557 51.0522 55.8042 50.4032 55.8042 49.5109C55.8042 48.6996 55.1557 47.9695 54.2639 47.9695C53.3722 47.9695 52.7237 48.6996 52.7237 49.5109ZM58.8037 49.5109C58.8037 50.3221 59.4522 51.0522 60.344 51.0522C61.1546 51.0522 61.8842 50.4032 61.8842 49.5109C61.8842 48.6996 61.2357 47.9695 60.344 47.9695C59.4522 47.9695 58.8037 48.6996 58.8037 49.5109ZM83.1238 49.5109C83.1238 50.3221 83.7723 51.0522 84.6641 51.0522C85.4748 51.0522 86.2044 50.4032 86.2044 49.5109C86.2044 48.6996 85.5558 47.9695 84.6641 47.9695C83.7723 47.9695 83.1238 48.6996 83.1238 49.5109ZM89.2038 49.5109C89.2038 50.3221 89.8524 51.0522 90.7441 51.0522C91.5548 51.0522 92.2844 50.4032 92.2844 49.5109C92.2844 48.6996 91.6359 47.9695 90.7441 47.9695C89.8524 47.9695 89.2038 48.6996 89.2038 49.5109ZM46.6436 43.4267C46.6436 44.2379 47.2922 44.968 48.1839 44.968C48.9946 44.968 49.7242 44.319 49.7242 43.4267C49.7242 42.6154 49.0756 41.8853 48.1839 41.8853C47.2922 41.8853 46.6436 42.6154 46.6436 43.4267ZM52.7237 43.4267C52.7237 44.2379 53.3722 44.968 54.2639 44.968C55.1557 44.968 55.8042 44.319 55.8042 43.4267C55.8042 42.6154 55.1557 41.8853 54.2639 41.8853C53.3722 41.8853 52.7237 42.6154 52.7237 43.4267ZM58.8037 43.4267C58.8037 44.2379 59.4522 44.968 60.344 44.968C61.1546 44.968 61.8842 44.319 61.8842 43.4267C61.8842 42.6154 61.2357 41.8853 60.344 41.8853C59.4522 41.8853 58.8037 42.6154 58.8037 43.4267ZM64.8837 43.4267C64.8837 44.2379 65.5323 44.968 66.424 44.968C66.7483 44.968 66.9915 44.8869 67.2347 44.7246C67.3968 44.4813 67.64 44.319 67.8021 44.0756C67.8832 43.9134 67.9643 43.67 67.9643 43.4267C67.9643 42.6154 67.3157 41.8853 66.424 41.8853C65.5323 41.8853 64.8837 42.6154 64.8837 43.4267ZM83.6102 44.4813C83.8534 44.7246 84.2587 44.8869 84.6641 44.8869C85.4748 44.8869 86.2044 44.2379 86.2044 43.3455C86.2044 42.5343 85.5558 41.8042 84.6641 41.8042C84.502 41.8042 84.3398 41.8042 84.2587 41.8853C84.0155 42.7777 83.8534 43.5889 83.6102 44.4813ZM40.5636 37.3425C40.5636 38.1537 41.2121 38.8838 42.1039 38.8838C42.9145 38.8838 43.6441 38.2348 43.6441 37.3425C43.6441 36.4501 42.9956 35.8011 42.1039 35.8011C41.2121 35.8011 40.5636 36.5312 40.5636 37.3425ZM46.6436 37.3425C46.6436 38.1537 47.2922 38.8838 48.1839 38.8838C48.9946 38.8838 49.7242 38.2348 49.7242 37.3425C49.7242 36.4501 49.0756 35.8011 48.1839 35.8011C47.2922 35.8011 46.6436 36.5312 46.6436 37.3425ZM52.7237 37.3425C52.7237 38.1537 53.3722 38.8838 54.2639 38.8838C55.1557 38.8838 55.8042 38.2348 55.8042 37.3425C55.8042 36.4501 55.1557 35.8011 54.2639 35.8011C53.3722 35.8011 52.7237 36.5312 52.7237 37.3425ZM58.8037 37.3425C58.8037 38.1537 59.4522 38.8838 60.344 38.8838C61.1546 38.8838 61.8842 38.2348 61.8842 37.3425C61.8842 36.4501 61.2357 35.8011 60.344 35.8011C59.4522 35.8011 58.8037 36.5312 58.8037 37.3425ZM64.8837 37.3425C64.8837 38.1537 65.5323 38.8838 66.424 38.8838C67.3157 38.8838 67.9643 38.2348 67.9643 37.3425C67.9643 36.4501 67.3157 35.8011 66.424 35.8011C65.5323 35.8011 64.8837 36.5312 64.8837 37.3425ZM70.9637 37.3425C70.9637 38.1537 71.6123 38.8838 72.504 38.8838C73.3147 38.8838 74.0443 38.2348 74.0443 37.3425C74.0443 36.4501 73.3958 35.8011 72.504 35.8011C71.6123 35.8011 70.9637 36.5312 70.9637 37.3425ZM77.0438 37.3425C77.0438 37.7481 77.2059 38.1537 77.4491 38.3971C78.3409 38.1537 79.2326 37.9103 79.9622 37.7481C79.9622 37.5858 80.0433 37.5047 80.0433 37.3425C80.0433 36.5312 79.3947 35.8011 78.503 35.8011C77.6923 35.8011 77.0438 36.5312 77.0438 37.3425ZM46.6436 31.2583C46.6436 32.0695 47.2922 32.7996 48.1839 32.7996C48.9946 32.7996 49.7242 32.1506 49.7242 31.2583C49.7242 30.3659 49.0756 29.7169 48.1839 29.7169C47.2922 29.7169 46.6436 30.447 46.6436 31.2583ZM52.7237 31.2583C52.7237 32.0695 53.3722 32.7996 54.2639 32.7996C55.1557 32.7996 55.8042 32.1506 55.8042 31.2583C55.8042 30.3659 55.1557 29.7169 54.2639 29.7169C53.3722 29.7169 52.7237 30.447 52.7237 31.2583ZM58.8037 31.2583C58.8037 32.0695 59.4522 32.7996 60.344 32.7996C61.1546 32.7996 61.8842 32.1506 61.8842 31.2583C61.8842 30.3659 61.2357 29.7169 60.344 29.7169C59.4522 29.7169 58.8037 30.447 58.8037 31.2583ZM64.8837 31.2583C64.8837 32.0695 65.5323 32.7996 66.424 32.7996C67.3157 32.7996 67.9643 32.1506 67.9643 31.2583C67.9643 30.3659 67.3157 29.7169 66.424 29.7169C65.5323 29.7169 64.8837 30.447 64.8837 31.2583ZM70.9637 31.2583C70.9637 32.0695 71.6123 32.7996 72.504 32.7996C73.3147 32.7996 74.0443 32.1506 74.0443 31.2583C74.0443 30.3659 73.3958 29.7169 72.504 29.7169C71.6123 29.7169 70.9637 30.447 70.9637 31.2583Z" fill="#F2F2F2"/>
<path fill-rule="evenodd" clip-rule="evenodd" d="M63.9109 58.1098C64.9648 47.8884 72.5851 40.1817 82.7995 39.2082C81.8267 49.3486 74.1254 57.0552 63.9109 58.1098ZM86.1233 35.8822C71.4501 36.1256 60.9114 46.7527 60.5872 61.4359C75.2603 61.1114 85.8801 50.5654 86.1233 35.8822Z" fill="#F2F2F2"/>
<path fill-rule="evenodd" clip-rule="evenodd" d="M83.6103 86.584H85.5559V84.5559L37.4831 36.4501L35.4564 36.369V38.3971L83.6103 86.584Z" fill="#F2F2F2"/>
<path fill-rule="evenodd" clip-rule="evenodd" d="M28.7278 73.1175C29.2953 74.0098 29.9439 74.9833 30.6735 75.8756C35.2943 81.4731 40.6447 83.8257 45.5898 84.6369C46.3194 84.718 47.049 84.7991 47.7786 84.8803H49.8053C49.8864 84.8803 50.616 84.7991 51.0213 84.7991C53.6965 84.5558 57.3445 83.1767 59.9387 80.8241C63.1003 77.9037 64.2352 74.821 64.7216 71.8195C64.7216 71.495 64.8027 71.0894 64.8027 70.7649V69.4669C64.8027 69.0613 64.6406 68.169 64.5595 67.9256C63.5056 62.8149 59.2901 60.0567 55.48 60.0567C53.048 60.0567 50.2106 61.2735 49.1568 64.6807C49.0757 65.0052 48.9946 65.4108 48.9946 65.7353V66.4654C48.9946 66.7088 49.2378 67.52 49.2378 67.6822C49.8864 69.6292 51.6698 70.5215 53.129 70.5215C54.6693 70.5215 56.2907 69.3858 56.2907 67.52C56.2907 66.7899 55.9664 65.8164 54.9125 65.8164C54.1829 65.8164 53.6154 66.3032 53.6154 67.1144C53.6154 67.1955 53.6154 67.4389 53.6154 67.4389C53.6154 67.7634 53.2101 67.8445 53.048 67.8445C52.2373 67.8445 51.5888 67.0333 51.5888 66.0598C51.5888 64.194 53.2912 62.5715 55.48 62.5715C58.7227 62.5715 61.8843 65.4108 62.2085 69.3858V70.6027C62.1275 71.7384 61.8843 72.9552 61.3979 74.1721C61.2357 74.6588 60.9115 75.2267 60.6683 75.7134C57.9931 80.3374 53.4533 82.041 49.8053 82.2032H47.8597C47.7786 82.2032 46.9679 82.1221 46.5626 82.041C41.8607 81.392 36.7535 79.2828 32.538 73.9287C31.9705 73.1986 31.4841 72.4685 30.9977 71.7384C28.89 68.3312 27.2686 63.1394 26.9444 58.272V57.2174C26.7822 58.5965 26.7012 59.9756 26.7012 61.4358C26.7012 65.573 27.4308 69.4669 28.7278 73.1175Z" fill="#F2F2F2"/>
</svg>
