<svg width="40" height="40" viewBox="0 0 40 40" fill="none" xmlns="http://www.w3.org/2000/svg">
<g clip-path="url(#clip0_2453_4950)">
<path d="M40 20C40 31.0484 31.0484 40 20 40C17.9355 40 15.9516 39.6855 14.0806 39.1048C14.8952 37.7742 16.1129 35.5968 16.5645 33.8629C16.8065 32.9274 17.8065 29.1048 17.8065 29.1048C18.4597 30.3468 20.3629 31.4032 22.3871 31.4032C28.4194 31.4032 32.7661 25.8548 32.7661 18.9597C32.7661 12.3548 27.371 7.41129 20.4355 7.41129C11.8065 7.41129 7.21774 13.2016 7.21774 19.5161C7.21774 22.4516 8.78226 26.1048 11.2742 27.2661C11.6532 27.4435 11.8548 27.3629 11.9435 27C12.0081 26.7258 12.3468 25.3629 12.5 24.7339C12.5484 24.5323 12.5242 24.3548 12.3629 24.1613C11.5484 23.1532 10.8871 21.3145 10.8871 19.5968C10.8871 15.1855 14.2258 10.9194 19.9194 10.9194C24.8306 10.9194 28.2742 14.2661 28.2742 19.0565C28.2742 24.4677 25.5403 28.2177 21.9839 28.2177C20.0242 28.2177 18.5484 26.5968 19.0242 24.6048C19.5887 22.2258 20.6774 19.6613 20.6774 17.9435C20.6774 16.4113 19.8548 15.129 18.1452 15.129C16.1371 15.129 14.5242 17.2016 14.5242 19.9839C14.5242 21.7581 15.121 22.9516 15.121 22.9516C15.121 22.9516 13.1452 31.3226 12.7823 32.8871C12.379 34.6129 12.5403 37.0484 12.7097 38.629C5.27419 35.7177 0 28.4758 0 20C0 8.95161 8.95161 0 20 0C31.0484 0 40 8.95161 40 20Z" fill="#3D3D3C"/>
</g>
<defs>
<clipPath id="clip0_2453_4950">
<rect width="40" height="40" fill="white"/>
</clipPath>
</defs>
</svg>
