<svg width="40" height="40" viewBox="0 0 40 40" fill="none" xmlns="http://www.w3.org/2000/svg">
<g clip-path="url(#clip0_2453_4954)">
<path fill-rule="evenodd" clip-rule="evenodd" d="M20.006 0C31.0471 0 40.012 8.95289 40.012 20.006C40.012 31.0471 31.0591 40.012 20.006 40.012C8.9649 40.012 0 31.0591 0 20.006C0 8.9649 8.95289 0 20.006 0ZM30.9631 15.5296C30.9631 15.5296 30.7471 13.9814 30.075 13.3093C29.2229 12.4212 28.2628 12.4092 27.8308 12.3612C24.6985 12.1332 20.006 12.1332 20.006 12.1332H19.994C19.994 12.1332 15.2895 12.1332 12.1692 12.3612C11.7372 12.4092 10.7771 12.4212 9.92499 13.3093C9.25292 13.9814 9.0369 15.5296 9.0369 15.5296C9.0369 15.5296 8.80888 17.3417 8.80888 19.1539V20.8461C8.80888 22.6583 9.0369 24.4704 9.0369 24.4704C9.0369 24.4704 9.25292 26.0186 9.92499 26.6907C10.7771 27.5788 11.8932 27.5548 12.3972 27.6508C14.1854 27.8188 20.006 27.8788 20.006 27.8788C20.006 27.8788 24.7105 27.8668 27.8428 27.6508C28.2748 27.6028 29.2349 27.5908 30.087 26.7027C30.7591 26.0306 30.9751 24.4824 30.9751 24.4824C30.9751 24.4824 31.2031 22.6703 31.2031 20.8581V19.1659C31.2031 17.3537 30.9751 15.5416 30.9751 15.5416L30.9631 15.5296ZM17.6778 22.9103V16.6217L23.7264 19.778L17.6778 22.9103Z" fill="#3D3D3C"/>
</g>
<defs>
<clipPath id="clip0_2453_4954">
<rect width="40" height="40" fill="white"/>
</clipPath>
</defs>
</svg>
