<svg width="159" height="27" viewBox="0 0 159 27" fill="none" xmlns="http://www.w3.org/2000/svg">
<path d="M13.0472 0.1875L17.2499 7.40303L25.411 9.17028L19.8473 15.397L20.6884 23.7047L13.0472 20.3375L5.40603 23.7047L6.24719 15.397L0.683507 9.17028L8.84458 7.40303L13.0472 0.1875Z" fill="#FFBE0B"/>
<path d="M46.0472 0.1875L50.2499 7.40303L58.411 9.17028L52.8473 15.397L53.6884 23.7047L46.0472 20.3375L38.406 23.7047L39.2472 15.397L33.6835 9.17028L41.8446 7.40303L46.0472 0.1875Z" fill="#FFBE0B"/>
<path d="M79.0472 0.1875L83.2499 7.40303L91.411 9.17028L85.8473 15.397L86.6884 23.7047L79.0472 20.3375L71.406 23.7047L72.2472 15.397L66.6835 9.17028L74.8446 7.40303L79.0472 0.1875Z" fill="#FFBE0B"/>
<path d="M112.047 0.1875L116.25 7.40303L124.411 9.17028L118.847 15.397L119.688 23.7047L112.047 20.3375L104.406 23.7047L105.247 15.397L99.6835 9.17028L107.845 7.40303L112.047 0.1875Z" fill="#FFBE0B"/>
<path d="M145.047 0.1875L149.25 7.40303L157.411 9.17028L151.847 15.397L152.688 23.7047L145.047 20.3375L137.406 23.7047L138.247 15.397L132.684 9.17028L140.845 7.40303L145.047 0.1875Z" fill="url(#paint0_linear_7_213)"/>
<defs>
<linearGradient id="paint0_linear_7_213" x1="132.047" y1="9.1875" x2="158.047" y2="9.6875" gradientUnits="userSpaceOnUse">
<stop stop-color="#FFBE0B"/>
<stop offset="0.478967" stop-color="#FFBE0B"/>
<stop offset="0.479067" stop-color="#FFBE0B" stop-opacity="0.0108695"/>
<stop offset="0.479167" stop-color="#FFBE0B" stop-opacity="0"/>
<stop offset="0.479167" stop-color="#FFBE0B" stop-opacity="0"/>
<stop offset="0.479167" stop-color="#FFBE0B" stop-opacity="0"/>
</linearGradient>
</defs>
</svg>
