<svg width="45" height="45" viewBox="0 0 45 45" fill="none" xmlns="http://www.w3.org/2000/svg">
<path fill-rule="evenodd" clip-rule="evenodd" d="M5.625 11.9531C5.625 10.7881 6.5694 9.84375 7.73438 9.84375H37.2656C38.4306 9.84375 39.375 10.7881 39.375 11.9531C39.375 13.1181 38.4306 14.0625 37.2656 14.0625H7.73438C6.5694 14.0625 5.625 13.1181 5.625 11.9531ZM5.625 23.2031C5.625 22.0381 6.5694 21.0938 7.73438 21.0938H37.2656C38.4306 21.0938 39.375 22.0381 39.375 23.2031C39.375 24.3681 38.4306 25.3125 37.2656 25.3125H7.73438C6.5694 25.3125 5.625 24.3681 5.625 23.2031ZM5.625 34.4531C5.625 33.2881 6.5694 32.3438 7.73438 32.3438H37.2656C38.4306 32.3438 39.375 33.2881 39.375 34.4531C39.375 35.6181 38.4306 36.5625 37.2656 36.5625H7.73438C6.5694 36.5625 5.625 35.6181 5.625 34.4531Z" fill="white"/>
</svg>
