<svg width="45" height="45" viewBox="0 0 45 45" fill="none" xmlns="http://www.w3.org/2000/svg">
<path d="M8.5781 8.57813C9.10552 8.05087 9.82076 7.75467 10.5665 7.75467C11.3123 7.75467 12.0276 8.05087 12.555 8.57813L22.5 18.5231L32.445 8.57813C32.9754 8.06581 33.6859 7.78233 34.4233 7.78874C35.1607 7.79514 35.8661 8.09093 36.3876 8.61239C36.909 9.13385 37.2048 9.83926 37.2112 10.5767C37.2177 11.3141 36.9342 12.0246 36.4219 12.555L26.4768 22.5L36.4219 32.445C36.9342 32.9755 37.2177 33.6859 37.2112 34.4233C37.2048 35.1607 36.909 35.8662 36.3876 36.3876C35.8661 36.9091 35.1607 37.2049 34.4233 37.2113C33.6859 37.2177 32.9754 36.9342 32.445 36.4219L22.5 26.4769L12.555 36.4219C12.0245 36.9342 11.3141 37.2177 10.5767 37.2113C9.83923 37.2049 9.13382 36.9091 8.61236 36.3876C8.0909 35.8662 7.79511 35.1607 7.7887 34.4233C7.7823 33.6859 8.06578 32.9755 8.5781 32.445L18.5231 22.5L8.5781 12.555C8.05084 12.0276 7.75464 11.3123 7.75464 10.5666C7.75464 9.82079 8.05084 9.10555 8.5781 8.57813Z" fill="white"/>
</svg>
