<svg width="206" height="66" viewBox="0 0 206 66" fill="none" xmlns="http://www.w3.org/2000/svg">
<path d="M24.3307 23.9076L21.6985 24.5999L23.438 26.6999L21.172 28.3614L19.7987 26.1691H19.6614L18.288 28.3614L16.0449 26.6999L17.7616 24.5999L15.1294 23.9306L15.9991 21.2537L18.5169 22.246L18.3567 19.5229H21.1491L20.9889 22.246L23.5067 21.2537L24.3307 23.9076ZM16.4569 7.17679L6.08826 34.7076H14.6945L15.5871 32.2383H23.85L24.7427 34.7076H33.3489L23.0031 7.17679H16.4569Z" fill="#3C3C3B"/>
<path d="M43.3972 28.2228H42.413V23.4459H43.3972C45.4801 23.4459 46.5101 24.2536 46.5101 25.8459C46.5101 27.4382 45.4572 28.2228 43.3972 28.2228ZM42.413 13.6613H43.3972C44.7705 13.6613 45.4343 14.2844 45.4343 15.5536C45.4343 16.8228 44.7476 17.4459 43.3972 17.4459H42.413V13.6613ZM53.4683 21.1382C52.9876 20.5382 52.4383 20.0305 51.8203 19.6613C52.2094 19.3382 52.5528 18.9228 52.8503 18.4152C53.1021 17.9998 53.331 17.4921 53.537 16.869C53.7659 16.2459 53.8574 15.5075 53.8574 14.6305C53.8574 13.3844 53.6285 12.3228 53.1708 11.3998C52.713 10.4767 52.095 9.71515 51.2939 9.09208C50.4928 8.469 49.5085 8.00746 48.387 7.68438C47.2654 7.36131 46.0065 7.19977 44.6332 7.19977H33.9441V34.7305H45.0681C46.6016 34.7305 47.975 34.5228 49.2339 34.1305C50.4699 33.7382 51.5228 33.1613 52.3925 32.3998C53.2623 31.6382 53.9032 30.7382 54.3839 29.6536C54.8416 28.5921 55.0705 27.3921 55.0705 26.0536C55.0705 24.8998 54.9103 23.9305 54.567 23.1228C54.2465 22.3152 53.8803 21.669 53.4683 21.1382Z" fill="#3C3C3B"/>
<path d="M66.1945 7.17679H56.9474V34.7076H66.1945V7.17679Z" fill="#3C3C3B"/>
<path d="M78.1424 7.17679H69.0555V34.7076H85.6728V27.4845H78.1424V7.17679Z" fill="#3C3C3B"/>
<path d="M101.443 17.746L94.302 7.17679H87.1149V34.7076H95.8356V24.8076L101.443 33.0691L107.005 24.8076V34.7076H115.726V7.17679H108.516L101.443 17.746Z" fill="#3C3C3B"/>
<path d="M127.308 24.323H134.564V17.4691H127.308V14.3999H134.678V7.17679H118.587V34.7076H134.953V27.4845H127.308V24.323Z" fill="#3C3C3B"/>
<path d="M152.119 17.7922L144.589 7.17679H137.425V34.7076H145.962V24.1383L153.47 34.7076H160.68V7.17679H152.119V17.7922Z" fill="#3C3C3B"/>
<path d="M162.099 14.3999H167.134V34.7076H176.153V14.3999H181.165V7.17679H162.099V14.3999Z" fill="#3C3C3B"/>
<path d="M191.328 27.4845V24.323H198.584V17.4691H191.328V14.3999H198.698V7.17679H182.607V34.7076H198.973V27.4845H191.328Z" fill="#3C3C3B"/>
<path d="M91.3724 39.9467V53.1005H92.8831V53.8851H85.1467V53.1005H87.2296V40.7313H85.1467V39.9467H91.3724ZM99.9558 44.2159V53.1005H101.466V53.8851H94.2564V53.1005H95.79V44.6543C95.79 43.8005 95.7671 43.1313 95.6984 42.6005C95.6298 42.0697 95.5153 41.7005 95.3322 41.4697C95.1491 41.239 94.8973 41.1236 94.5311 41.1236C94.0962 41.1236 93.6842 41.3082 93.2951 41.6543C92.906 42.0005 92.5627 42.4851 92.288 43.062C92.0133 43.639 91.7844 44.2851 91.6242 44.9774C91.464 45.6697 91.3953 46.362 91.3953 47.0543L90.8918 47.0774C90.8918 46.362 90.9833 45.6005 91.1436 44.7467C91.3038 43.8928 91.5784 43.0851 91.9676 42.3236C92.3567 41.562 92.8831 40.9159 93.5698 40.4313C94.2564 39.9467 95.1033 39.6928 96.1104 39.6928C97.0718 39.6928 97.85 39.9005 98.3993 40.2928C98.9487 40.6851 99.3607 41.2159 99.5896 41.9082C99.8413 42.5543 99.9558 43.339 99.9558 44.2159ZM108.493 44.2159V53.1005H110.576V53.8851H102.817V53.1005H104.35V44.6543C104.35 43.8005 104.305 43.1313 104.236 42.6005C104.167 42.0697 104.03 41.7005 103.824 41.4697C103.618 41.239 103.343 41.1236 103 41.1236C102.542 41.1236 102.13 41.3082 101.764 41.6543C101.398 42.0005 101.054 42.4851 100.803 43.062C100.528 43.639 100.322 44.2851 100.185 44.9774C100.047 45.6697 99.9558 46.362 99.9558 47.0543L99.4522 47.0774C99.4522 46.362 99.5209 45.6005 99.6811 44.7467C99.8184 43.8928 100.093 43.0851 100.459 42.3236C100.826 41.562 101.352 40.9159 102.016 40.4313C102.68 39.9467 103.549 39.6928 104.602 39.6928C105.564 39.6928 106.342 39.9005 106.914 40.2928C107.486 40.6851 107.898 41.2159 108.15 41.9082C108.356 42.5543 108.493 43.339 108.493 44.2159Z" fill="#3C3C3B"/>
<path d="M113.735 54.2079C112.43 54.2079 111.4 53.8618 110.622 53.1925C109.844 52.5233 109.455 51.6002 109.455 50.4464C109.455 49.0848 110.027 48.0233 111.194 47.2156C112.362 46.431 114.01 46.0156 116.138 46.0156H119.732V46.7079H117.077C116.321 46.7079 115.703 46.8694 115.246 47.1925C114.788 47.5156 114.444 47.931 114.238 48.4156C114.032 48.9002 113.918 49.3848 113.918 49.8925C113.918 50.3771 113.987 50.8156 114.124 51.1848C114.261 51.5541 114.467 51.8541 114.719 52.0618C114.971 52.2695 115.314 52.3848 115.703 52.3848C116.115 52.3848 116.527 52.2464 116.939 51.9464C117.351 51.6694 117.695 51.2079 117.946 50.631C118.221 50.031 118.358 49.2694 118.358 48.3464H118.862C118.862 49.5233 118.656 50.5387 118.221 51.4156C117.786 52.2925 117.191 52.9618 116.436 53.4464C115.635 53.9541 114.742 54.2079 113.735 54.2079ZM121.677 54.2079C121.036 54.2079 120.464 54.1156 119.961 53.9079C119.457 53.7002 119.068 53.4233 118.77 53.0079C118.473 52.5925 118.336 52.1079 118.336 51.4848V44.6771C118.336 43.9387 118.267 43.2694 118.13 42.6233C117.992 41.9771 117.718 41.4694 117.306 41.0771C116.894 40.6848 116.298 40.4771 115.497 40.4771C115.085 40.4771 114.673 40.5233 114.216 40.6156C113.758 40.7079 113.323 40.8464 112.911 41.031C112.499 41.2387 112.156 41.4925 111.904 41.7925C111.629 42.1156 111.515 42.4848 111.515 42.9694H110.553C110.553 42.3233 110.782 41.8156 111.263 41.4233C111.744 41.031 112.293 40.8464 112.911 40.8464C113.552 40.8464 114.147 41.031 114.628 41.3771C115.131 41.7233 115.383 42.231 115.383 42.9002C115.383 43.6156 115.131 44.1694 114.628 44.5387C114.124 44.9079 113.552 45.0925 112.911 45.0925C112.224 45.0925 111.652 44.9079 111.194 44.5156C110.736 44.1464 110.508 43.6156 110.508 42.9694C110.508 42.4156 110.668 41.9079 111.011 41.5156C111.332 41.1002 111.789 40.7771 112.339 40.5002C112.888 40.2464 113.506 40.0387 114.17 39.9233C114.856 39.8079 115.52 39.7387 116.207 39.7387C117.74 39.7387 118.976 39.9464 119.892 40.3848C120.808 40.8233 121.471 41.4002 121.906 42.1387C122.318 42.8771 122.524 43.731 122.524 44.6771V51.7387C122.524 52.0848 122.593 52.3618 122.707 52.5925C122.822 52.8233 123.074 52.9387 123.44 52.9387C123.669 52.9387 123.92 52.8464 124.241 52.6848C124.561 52.5233 124.79 52.2694 124.973 51.9233L125.431 52.4541C125.156 53.0079 124.676 53.4233 124.035 53.7233C123.371 54.0464 122.593 54.2079 121.677 54.2079Z" fill="#3C3C3B"/>
<path d="M130.604 61.7767C129.666 61.7767 128.773 61.7075 127.926 61.546C127.079 61.4075 126.301 61.1767 125.637 60.8537C124.95 60.5306 124.424 60.1152 124.035 59.6306C123.646 59.1229 123.44 58.5229 123.44 57.8306C123.44 57.2075 123.6 56.6767 123.92 56.2844C124.241 55.869 124.653 55.546 125.134 55.3383C125.614 55.1075 126.095 54.946 126.576 54.8537C127.056 54.7614 127.468 54.7152 127.812 54.7152H128.407C127.949 54.9691 127.606 55.2921 127.331 55.7306C127.056 56.1691 126.942 56.7229 126.942 57.3921C126.942 58.0383 127.102 58.6383 127.445 59.169C127.789 59.6998 128.292 60.1152 128.956 60.4383C129.62 60.7383 130.444 60.8998 131.428 60.8998C132.069 60.8998 132.687 60.8306 133.282 60.6921C133.877 60.5537 134.404 60.346 134.861 60.069C135.319 59.7921 135.685 59.446 135.96 59.0075C136.235 58.569 136.349 58.0614 136.349 57.4614C136.349 56.8844 136.212 56.3998 135.914 56.0306C135.617 55.6614 135.228 55.3844 134.701 55.1998C134.198 55.0152 133.602 54.9229 132.962 54.9229C132.756 54.9229 132.412 54.9229 131.932 54.9229C131.451 54.9229 130.993 54.9229 130.512 54.9229C130.032 54.9229 129.688 54.9229 129.482 54.9229C127.949 54.9229 126.713 54.6691 125.797 54.1844C124.882 53.6998 124.401 52.9152 124.401 51.8767C124.401 51.2306 124.584 50.6998 124.95 50.2614C125.317 49.8229 125.797 49.4767 126.392 49.1998C126.988 48.9229 127.651 48.7383 128.384 48.5998C129.116 48.4844 129.826 48.4152 130.535 48.4152L130.49 48.8306C130.192 48.8306 129.872 48.8767 129.505 48.946C129.139 49.0152 128.773 49.1306 128.43 49.2691C128.086 49.4075 127.812 49.5691 127.583 49.7537C127.354 49.9383 127.262 50.146 127.262 50.3767C127.262 50.7921 127.514 51.046 127.995 51.1614C128.475 51.2767 129.139 51.346 129.963 51.346C130.306 51.346 130.673 51.346 131.016 51.346C131.359 51.346 131.703 51.346 132.046 51.3229C132.389 51.3229 132.687 51.3229 132.962 51.3229C133.511 51.3229 134.106 51.3921 134.724 51.5537C135.342 51.6921 135.914 51.9691 136.441 52.3152C136.967 52.6844 137.402 53.1921 137.745 53.8614C138.066 54.5306 138.249 55.3614 138.249 56.3998C138.249 57.3921 138.043 58.246 137.631 58.9383C137.219 59.6306 136.67 60.1844 135.937 60.5998C135.228 61.0152 134.404 61.3152 133.488 61.5229C132.55 61.6844 131.588 61.7767 130.604 61.7767ZM130.284 49.0152C129.574 49.0152 128.864 48.9229 128.155 48.7614C127.445 48.5998 126.782 48.3229 126.164 47.9537C125.568 47.5844 125.065 47.0998 124.699 46.4998C124.332 45.8998 124.149 45.1844 124.149 44.3537C124.149 43.5229 124.332 42.8075 124.699 42.2075C125.065 41.6075 125.568 41.146 126.164 40.7767C126.759 40.4075 127.422 40.1306 128.155 39.9691C128.887 39.8075 129.574 39.7152 130.284 39.7152C130.993 39.7152 131.703 39.8075 132.412 39.9691C133.122 40.1537 133.786 40.4075 134.358 40.7767C134.953 41.146 135.434 41.6306 135.777 42.2075C136.12 42.7844 136.326 43.5229 136.326 44.3537C136.326 45.1844 136.143 45.8998 135.777 46.4998C135.411 47.0998 134.93 47.5844 134.358 47.9537C133.763 48.3229 133.122 48.5998 132.412 48.7614C131.726 48.9229 130.993 49.0152 130.284 49.0152ZM130.284 48.2075C130.696 48.2075 131.039 48.046 131.314 47.7229C131.588 47.3998 131.794 46.9383 131.909 46.3614C132.046 45.7844 132.115 45.0921 132.115 44.3306C132.115 43.5229 132.046 42.8075 131.909 42.2306C131.771 41.6537 131.588 41.2152 131.314 40.9152C131.039 40.6152 130.696 40.4537 130.284 40.4537C129.872 40.4537 129.528 40.6152 129.254 40.9152C128.979 41.2152 128.773 41.6537 128.658 42.2306C128.521 42.8075 128.452 43.5229 128.452 44.3306C128.452 45.1152 128.498 45.7844 128.567 46.3614C128.636 46.9383 128.819 47.3998 129.07 47.7229C129.345 48.046 129.757 48.2075 130.284 48.2075ZM139.462 44.5152C138.981 44.5152 138.524 44.3537 138.157 44.0075C137.768 43.6844 137.585 43.1998 137.585 42.5998C137.585 41.9767 137.791 41.5152 138.18 41.2383C138.569 40.9614 139.004 40.8229 139.485 40.8229C139.92 40.8229 140.355 40.9614 140.79 41.2383C141.224 41.5152 141.43 41.9306 141.43 42.4614H140.652C140.652 41.9537 140.446 41.5152 140.034 41.146C139.622 40.7767 139.096 40.5691 138.455 40.5691C138.089 40.5691 137.7 40.6614 137.265 40.8229C136.83 40.9844 136.418 41.2844 136.029 41.7229C135.64 42.1614 135.342 42.7844 135.159 43.5921L134.61 43.1767C134.816 42.3229 135.136 41.6306 135.548 41.146C135.983 40.6614 136.441 40.2921 136.967 40.1075C137.471 39.8998 137.951 39.8075 138.409 39.8075C139.05 39.8075 139.599 39.946 140.057 40.1998C140.515 40.4537 140.858 40.7998 141.11 41.2152C141.362 41.6306 141.476 42.046 141.476 42.4844C141.476 43.246 141.27 43.7767 140.858 44.0767C140.4 44.3767 139.943 44.5152 139.462 44.5152Z" fill="#3C3C3B"/>
<path d="M140.904 54.2079C139.599 54.2079 138.569 53.8618 137.791 53.1925C137.013 52.5233 136.624 51.6002 136.624 50.4464C136.624 49.0848 137.196 48.0233 138.386 47.2156C139.554 46.431 141.202 46.0156 143.33 46.0156H146.924V46.7079H144.269C143.513 46.7079 142.895 46.8694 142.438 47.1925C141.98 47.5156 141.636 47.931 141.43 48.4156C141.224 48.9002 141.11 49.3848 141.11 49.8925C141.11 50.3771 141.179 50.8156 141.316 51.1848C141.453 51.5541 141.659 51.8541 141.911 52.0618C142.163 52.2695 142.506 52.3848 142.895 52.3848C143.307 52.3848 143.719 52.2464 144.131 51.9464C144.543 51.6694 144.887 51.2079 145.138 50.631C145.413 50.031 145.55 49.2694 145.55 48.3464H146.054C146.054 49.5233 145.848 50.5387 145.413 51.4156C144.978 52.2925 144.383 52.9618 143.628 53.4464C142.804 53.9541 141.911 54.2079 140.904 54.2079ZM148.846 54.2079C148.206 54.2079 147.633 54.1156 147.13 53.9079C146.626 53.7002 146.237 53.4233 145.94 53.0079C145.665 52.6156 145.505 52.1079 145.505 51.4848V44.6771C145.505 43.9387 145.436 43.2694 145.299 42.6233C145.161 41.9771 144.887 41.4694 144.475 41.0771C144.063 40.6848 143.468 40.4771 142.666 40.4771C142.254 40.4771 141.842 40.5233 141.385 40.6156C140.927 40.7079 140.492 40.8464 140.08 41.031C139.668 41.2387 139.325 41.4925 139.073 41.7925C138.798 42.1156 138.684 42.4848 138.684 42.9694H137.722C137.722 42.3233 137.951 41.8156 138.432 41.4233C138.913 41.031 139.462 40.8464 140.08 40.8464C140.721 40.8464 141.316 41.031 141.797 41.3771C142.3 41.7233 142.529 42.231 142.529 42.9002C142.529 43.6156 142.277 44.1694 141.774 44.5387C141.27 44.9079 140.698 45.0925 140.057 45.0925C139.37 45.0925 138.798 44.9079 138.34 44.5156C137.883 44.1464 137.654 43.6156 137.654 42.9694C137.654 42.4156 137.814 41.9079 138.157 41.5156C138.478 41.1002 138.936 40.7771 139.485 40.5002C140.034 40.2464 140.652 40.0387 141.316 39.9233C142.003 39.8079 142.666 39.7387 143.353 39.7387C144.887 39.7387 146.123 39.9464 147.038 40.3848C147.954 40.8233 148.618 41.4002 149.052 42.1387C149.464 42.8771 149.67 43.731 149.67 44.6771V51.7387C149.67 52.0848 149.739 52.3618 149.854 52.5925C149.968 52.8233 150.22 52.9387 150.586 52.9387C150.815 52.9387 151.067 52.8464 151.387 52.6848C151.708 52.5233 151.936 52.2694 152.12 51.9233L152.577 52.4541C152.303 53.0079 151.822 53.4233 151.181 53.7233C150.517 54.0464 149.739 54.2079 148.846 54.2079Z" fill="#3C3C3B"/>
<path d="M150.426 53.9079V53.1233L158.483 40.754H156.514C155.576 40.754 154.798 40.9156 154.203 41.2156C153.607 41.5387 153.127 42.0002 152.783 42.6694C152.44 43.3156 152.188 44.1463 152.051 45.1848H151.273V39.9694H163.198V40.754L155.118 53.1233H157.75C158.62 53.1233 159.353 53.054 159.971 52.8925C160.589 52.731 161.069 52.4771 161.458 52.131C161.847 51.7848 162.145 51.3002 162.374 50.6771C162.603 50.054 162.763 49.2694 162.877 48.3463H163.678V53.931H150.426V53.9079Z" fill="#3C3C3B"/>
<path d="M169.195 39.946V53.0999H171.255V53.8845H162.923V53.0999H164.983V40.7307H162.923V39.946H169.195Z" fill="#3C3C3B"/>
<path d="M175.878 39.9462V53.1H177.481V53.8846H169.653V53.1H171.735V40.7308H169.653V39.9462H175.878ZM185.057 44.2154V53.1H187.117V53.8846H179.289V53.1H180.891V44.7C180.891 43.8462 180.845 43.1769 180.777 42.6693C180.708 42.1616 180.571 41.7923 180.365 41.5616C180.159 41.3308 179.861 41.2154 179.449 41.2154C178.945 41.2154 178.488 41.4 178.053 41.7462C177.618 42.0923 177.252 42.5539 176.931 43.1308C176.611 43.7077 176.359 44.3308 176.176 45.0231C175.993 45.7154 175.901 46.4077 175.901 47.1231L175.306 47.1462C175.306 46.4308 175.398 45.6462 175.581 44.7923C175.764 43.9385 176.084 43.1077 176.496 42.3462C176.931 41.5616 177.481 40.9385 178.213 40.4308C178.923 39.9231 179.792 39.6693 180.822 39.6693C181.967 39.6693 182.837 39.8769 183.455 40.2693C184.05 40.6616 184.485 41.1923 184.713 41.8846C184.919 42.5539 185.057 43.3385 185.057 44.2154Z" fill="#3C3C3B"/>
<path d="M193.274 54.2077C191.9 54.2077 190.664 53.9308 189.566 53.3769C188.467 52.8231 187.62 51.9923 186.979 50.9077C186.338 49.8231 186.041 48.5077 186.041 46.9385C186.041 45.3693 186.338 44.0539 186.934 42.9693C187.529 41.8846 188.375 41.0769 189.428 40.5C190.504 39.9462 191.717 39.6693 193.114 39.6693C194.578 39.6693 195.792 39.9693 196.73 40.5693C197.668 41.1693 198.378 41.9539 198.836 42.9231C199.294 43.8923 199.522 44.9308 199.522 46.0385H188.032V45.2308H195.059C195.059 44.6539 195.036 44.0769 194.99 43.5231C194.945 42.9462 194.876 42.4385 194.762 41.9769C194.647 41.5154 194.441 41.1462 194.189 40.8693C193.938 40.5923 193.571 40.4539 193.114 40.4539C192.61 40.4539 192.198 40.6154 191.878 40.9385C191.557 41.2616 191.305 41.7 191.122 42.2539C190.939 42.8077 190.802 43.4769 190.733 44.2154C190.664 44.9539 190.619 45.7616 190.619 46.6385C190.619 47.6077 190.664 48.5077 190.756 49.3385C190.848 50.1462 191.031 50.8616 191.259 51.4385C191.511 52.0385 191.855 52.4769 192.289 52.8C192.724 53.1231 193.274 53.2846 193.96 53.2846C195.174 53.2846 196.204 52.9616 197.028 52.3154C197.852 51.6693 198.447 50.8385 198.813 49.8231H199.66C199.271 51.0693 198.561 52.1077 197.508 52.9616C196.501 53.7923 195.082 54.2077 193.274 54.2077Z" fill="#3C3C3B"/>
</svg>
