<svg width="23" height="23" viewBox="0 0 23 23" fill="none" xmlns="http://www.w3.org/2000/svg">
<path d="M11.821 5.88965C8.71558 5.88965 6.21069 8.39453 6.21069 11.5C6.21069 14.6055 8.71558 17.1103 11.821 17.1103C14.9265 17.1103 17.4314 14.6055 17.4314 11.5C17.4314 8.39453 14.9265 5.88965 11.821 5.88965ZM11.821 15.1475C9.81421 15.1475 8.17358 13.5117 8.17358 11.5C8.17358 9.48828 9.80933 7.85254 11.821 7.85254C13.8328 7.85254 15.4685 9.48828 15.4685 11.5C15.4685 13.5117 13.8279 15.1475 11.821 15.1475ZM18.9695 5.66016C18.9695 6.3877 18.3835 6.96875 17.6609 6.96875C16.9334 6.96875 16.3523 6.38281 16.3523 5.66016C16.3523 4.9375 16.9382 4.35156 17.6609 4.35156C18.3835 4.35156 18.9695 4.9375 18.9695 5.66016ZM22.6853 6.98828C22.6023 5.23535 22.2019 3.68262 20.9177 2.40332C19.6384 1.12402 18.0857 0.723633 16.3328 0.635742C14.5261 0.533203 9.11108 0.533203 7.30444 0.635742C5.5564 0.71875 4.00366 1.11914 2.71948 2.39844C1.4353 3.67773 1.03979 5.23047 0.951904 6.9834C0.849365 8.79004 0.849365 14.2051 0.951904 16.0117C1.03491 17.7646 1.4353 19.3174 2.71948 20.5967C4.00366 21.876 5.55151 22.2764 7.30444 22.3643C9.11108 22.4668 14.5261 22.4668 16.3328 22.3643C18.0857 22.2812 19.6384 21.8809 20.9177 20.5967C22.197 19.3174 22.5974 17.7646 22.6853 16.0117C22.7878 14.2051 22.7878 8.79492 22.6853 6.98828ZM20.3513 17.9502C19.9705 18.9072 19.2332 19.6445 18.2712 20.0303C16.8308 20.6016 13.4128 20.4697 11.821 20.4697C10.2292 20.4697 6.8064 20.5967 5.37085 20.0303C4.41382 19.6494 3.67651 18.9121 3.29077 17.9502C2.71948 16.5098 2.85132 13.0918 2.85132 11.5C2.85132 9.9082 2.72437 6.48535 3.29077 5.0498C3.67163 4.09277 4.40894 3.35547 5.37085 2.96973C6.81128 2.39844 10.2292 2.53027 11.821 2.53027C13.4128 2.53027 16.8357 2.40332 18.2712 2.96973C19.2283 3.35059 19.9656 4.08789 20.3513 5.0498C20.9226 6.49023 20.7908 9.9082 20.7908 11.5C20.7908 13.0918 20.9226 16.5146 20.3513 17.9502Z" fill="#3A86FF"/>
</svg>
