<svg width="22" height="23" viewBox="0 0 22 23" fill="none" xmlns="http://www.w3.org/2000/svg">
<path d="M4.89648 22.4373H0.361328V7.83276H4.89648V22.4373ZM2.62646 5.84058C1.17627 5.84058 0 4.6394 0 3.18921C1.03799e-08 2.49263 0.276716 1.82458 0.769274 1.33202C1.26183 0.83946 1.92988 0.562744 2.62646 0.562744C3.32305 0.562744 3.9911 0.83946 4.48366 1.33202C4.97621 1.82458 5.25293 2.49263 5.25293 3.18921C5.25293 4.6394 4.07617 5.84058 2.62646 5.84058ZM21.8701 22.4373H17.3447V15.3279C17.3447 13.6335 17.3105 11.4607 14.9868 11.4607C12.6289 11.4607 12.2676 13.3015 12.2676 15.2058V22.4373H7.73731V7.83276H12.0869V9.82495H12.1504C12.7559 8.67749 14.2349 7.46655 16.4414 7.46655C21.0312 7.46655 21.875 10.489 21.875 14.4148V22.4373H21.8701Z" fill="#3A86FF"/>
</svg>
