<svg width="310" height="183" viewBox="0 0 310 183" fill="none" xmlns="http://www.w3.org/2000/svg">
<path d="M262.853 97.7633C253.085 97.7633 246.705 91.3041 246.705 81.7729C246.705 72.3996 253.164 66.0193 262.853 66.0193H288.374V97.7633H262.853ZM309.721 47.5873H260.332C239.38 47.5873 225.044 61.2929 225.044 80.9852C225.044 96.5814 233.945 108.397 248.044 112.493L221.105 153.532H244.972L269.233 116.195H288.296V153.532H309.721V47.5873ZM42.5355 75.3926V43.4124H84.0469V134.076H31.9803C37.5728 124.308 42.5355 101.701 42.5355 75.3926ZM106.023 22.9324H21.3467V76.2593C21.3467 103.435 16.5413 124.624 10.1611 134.155H0V182.519H20.9525V153.925H100.195V182.519H121.147V134.155H106.023V22.9324ZM169.905 135.572L168.015 134.312L192.748 47.5873H142.73L137.373 66.8854L166.439 66.6492L147.535 132.816C144.227 144.867 152.34 156.052 165.573 156.052C169.748 156.052 173.844 155.028 178.412 152.114L212.441 129.113L202.043 113.753L169.905 135.572ZM184.399 27.6588C194.954 27.6588 199.365 23.7201 199.365 14.3468C199.365 4.57928 194.796 0.640625 184.399 0.640625C174.001 0.640625 169.433 4.57928 169.433 14.3468C169.511 23.7201 173.844 27.6588 184.399 27.6588Z" fill="white"/>
</svg>
