<svg width="401" height="229" viewBox="0 0 401 229" fill="none" xmlns="http://www.w3.org/2000/svg">
<path fill-rule="evenodd" clip-rule="evenodd" d="M82.9911 81.772L92.4484 68.4383C96.7355 62.3939 104.014 59.3791 111.21 60.6675C116.782 61.6648 120.516 67.0945 119.55 72.795C119.47 73.2667 119.358 73.7323 119.216 74.1885C111.781 98.032 109.68 113.688 112.914 121.156C124.705 105.812 184.247 6.33431 203.929 1.05599C210.5 -0.706263 217.231 3.31868 218.963 10.0463C219.549 12.3223 219.501 14.7199 218.823 16.9672C201.911 73.0456 195.083 106.842 198.339 118.358C207.766 103.777 221.836 84.1068 240.546 59.3475C247.574 50.0473 259.13 45.6022 270.416 47.857C280.341 49.8397 286.829 59.6785 284.908 69.8326C284.895 69.8992 284.883 69.9659 284.868 70.0327C279.034 99.1482 277.076 116.135 278.994 120.992C279.749 120.363 280.515 119.718 281.293 119.057C290.005 111.655 301.092 107.822 312.415 108.298L400.268 111.987L342.43 120.66C326.283 123.082 311.71 131.872 301.828 145.153L288.509 163.052C284.149 168.912 277.262 172.216 270.065 171.9C262.915 171.586 256.842 166.427 255.224 159.292C251.249 141.765 250.018 120.963 251.533 96.886C234.979 124.122 221.117 162.963 209.948 213.41C208.028 222.085 200.63 228.333 191.942 228.62C183.645 228.893 176.625 222.372 176.09 213.893L168.028 86.1064L133.343 162.275C129.733 170.202 121.362 174.645 112.943 173.101C104.024 171.466 96.4887 165.374 92.8682 156.87L88.3498 146.257C81.9562 131.241 68.2994 120.78 52.4244 118.738C34.9666 116.494 17.5087 114.249 0.050967 112.004L38.6379 107.928C56.3895 106.053 72.5143 96.5437 82.9911 81.772Z" fill="white"/>
</svg>
