<svg width="181" height="62" viewBox="0 0 181 62" fill="none" xmlns="http://www.w3.org/2000/svg">
<path d="M4.643 19.003H10.853V22H0.863V3.154H4.643V19.003ZM12.2836 14.467C12.2836 12.955 12.5806 11.614 13.1746 10.444C13.7866 9.274 14.6056 8.374 15.6316 7.744C16.6756 7.114 17.8366 6.799 19.1146 6.799C20.2306 6.799 21.2026 7.024 22.0306 7.474C22.8766 7.924 23.5516 8.491 24.0556 9.175V7.042H27.8626V22H24.0556V19.813C23.5696 20.515 22.8946 21.1 22.0306 21.568C21.1846 22.018 20.2036 22.243 19.0876 22.243C17.8276 22.243 16.6756 21.919 15.6316 21.271C14.6056 20.623 13.7866 19.714 13.1746 18.544C12.5806 17.356 12.2836 15.997 12.2836 14.467ZM24.0556 14.521C24.0556 13.603 23.8756 12.82 23.5156 12.172C23.1556 11.506 22.6696 11.002 22.0576 10.66C21.4456 10.3 20.7886 10.12 20.0866 10.12C19.3846 10.12 18.7366 10.291 18.1426 10.633C17.5486 10.975 17.0626 11.479 16.6846 12.145C16.3246 12.793 16.1446 13.567 16.1446 14.467C16.1446 15.367 16.3246 16.159 16.6846 16.843C17.0626 17.509 17.5486 18.022 18.1426 18.382C18.7546 18.742 19.4026 18.922 20.0866 18.922C20.7886 18.922 21.4456 18.751 22.0576 18.409C22.6696 18.049 23.1556 17.545 23.5156 16.897C23.8756 16.231 24.0556 15.439 24.0556 14.521ZM39.8434 6.826C41.6254 6.826 43.0654 7.393 44.1634 8.527C45.2614 9.643 45.8104 11.209 45.8104 13.225V22H42.0304V13.738C42.0304 12.55 41.7334 11.641 41.1394 11.011C40.5454 10.363 39.7354 10.039 38.7094 10.039C37.6654 10.039 36.8374 10.363 36.2254 11.011C35.6314 11.641 35.3344 12.55 35.3344 13.738V22H31.5544V7.042H35.3344V8.905C35.8384 8.257 36.4774 7.753 37.2514 7.393C38.0434 7.015 38.9074 6.826 39.8434 6.826ZM48.433 14.467C48.433 12.955 48.73 11.614 49.324 10.444C49.936 9.274 50.764 8.374 51.808 7.744C52.852 7.114 54.013 6.799 55.291 6.799C56.263 6.799 57.19 7.015 58.072 7.447C58.954 7.861 59.656 8.419 60.178 9.121V2.02H64.012V22H60.178V19.786C59.71 20.524 59.053 21.118 58.207 21.568C57.361 22.018 56.38 22.243 55.264 22.243C54.004 22.243 52.852 21.919 51.808 21.271C50.764 20.623 49.936 19.714 49.324 18.544C48.73 17.356 48.433 15.997 48.433 14.467ZM60.205 14.521C60.205 13.603 60.025 12.82 59.665 12.172C59.305 11.506 58.819 11.002 58.207 10.66C57.595 10.3 56.938 10.12 56.236 10.12C55.534 10.12 54.886 10.291 54.292 10.633C53.698 10.975 53.212 11.479 52.834 12.145C52.474 12.793 52.294 13.567 52.294 14.467C52.294 15.367 52.474 16.159 52.834 16.843C53.212 17.509 53.698 18.022 54.292 18.382C54.904 18.742 55.552 18.922 56.236 18.922C56.938 18.922 57.595 18.751 58.207 18.409C58.819 18.049 59.305 17.545 59.665 16.897C60.025 16.231 60.205 15.439 60.205 14.521ZM69.6208 5.26C68.9548 5.26 68.3968 5.053 67.9468 4.639C67.5148 4.207 67.2988 3.676 67.2988 3.046C67.2988 2.416 67.5148 1.894 67.9468 1.48C68.3968 1.048 68.9548 0.831999 69.6208 0.831999C70.2868 0.831999 70.8358 1.048 71.2678 1.48C71.7178 1.894 71.9428 2.416 71.9428 3.046C71.9428 3.676 71.7178 4.207 71.2678 4.639C70.8358 5.053 70.2868 5.26 69.6208 5.26ZM71.4838 7.042V22H67.7038V7.042H71.4838ZM83.5075 6.826C85.2895 6.826 86.7295 7.393 87.8275 8.527C88.9255 9.643 89.4745 11.209 89.4745 13.225V22H85.6945V13.738C85.6945 12.55 85.3975 11.641 84.8035 11.011C84.2095 10.363 83.3995 10.039 82.3735 10.039C81.3295 10.039 80.5015 10.363 79.8895 11.011C79.2955 11.641 78.9985 12.55 78.9985 13.738V22H75.2185V7.042H78.9985V8.905C79.5025 8.257 80.1415 7.753 80.9155 7.393C81.7075 7.015 82.5715 6.826 83.5075 6.826ZM98.9281 6.799C100.044 6.799 101.025 7.024 101.871 7.474C102.717 7.906 103.383 8.473 103.869 9.175V7.042H107.676V22.108C107.676 23.494 107.397 24.727 106.839 25.807C106.281 26.905 105.444 27.769 104.328 28.399C103.212 29.047 101.862 29.371 100.278 29.371C98.1541 29.371 96.4081 28.876 95.0401 27.886C93.6901 26.896 92.9251 25.546 92.7451 23.836H96.4981C96.6961 24.52 97.1191 25.06 97.7671 25.456C98.4331 25.87 99.2341 26.077 100.17 26.077C101.268 26.077 102.159 25.744 102.843 25.078C103.527 24.43 103.869 23.44 103.869 22.108V19.786C103.383 20.488 102.708 21.073 101.844 21.541C100.998 22.009 100.026 22.243 98.9281 22.243C97.6681 22.243 96.5161 21.919 95.4721 21.271C94.4281 20.623 93.6001 19.714 92.9881 18.544C92.3941 17.356 92.0971 15.997 92.0971 14.467C92.0971 12.955 92.3941 11.614 92.9881 10.444C93.6001 9.274 94.4191 8.374 95.4451 7.744C96.4891 7.114 97.6501 6.799 98.9281 6.799ZM103.869 14.521C103.869 13.603 103.689 12.82 103.329 12.172C102.969 11.506 102.483 11.002 101.871 10.66C101.259 10.3 100.602 10.12 99.9001 10.12C99.1981 10.12 98.5501 10.291 97.9561 10.633C97.3621 10.975 96.8761 11.479 96.4981 12.145C96.1381 12.793 95.9581 13.567 95.9581 14.467C95.9581 15.367 96.1381 16.159 96.4981 16.843C96.8761 17.509 97.3621 18.022 97.9561 18.382C98.5681 18.742 99.2161 18.922 99.9001 18.922C100.602 18.922 101.259 18.751 101.871 18.409C102.483 18.049 102.969 17.545 103.329 16.897C103.689 16.231 103.869 15.439 103.869 14.521ZM115.148 9.202C115.634 8.518 116.3 7.951 117.146 7.501C118.01 7.033 118.991 6.799 120.089 6.799C121.367 6.799 122.519 7.114 123.545 7.744C124.589 8.374 125.408 9.274 126.002 10.444C126.614 11.596 126.92 12.937 126.92 14.467C126.92 15.997 126.614 17.356 126.002 18.544C125.408 19.714 124.589 20.623 123.545 21.271C122.519 21.919 121.367 22.243 120.089 22.243C118.991 22.243 118.019 22.018 117.173 21.568C116.345 21.118 115.67 20.551 115.148 19.867V29.128H111.368V7.042H115.148V9.202ZM123.059 14.467C123.059 13.567 122.87 12.793 122.492 12.145C122.132 11.479 121.646 10.975 121.034 10.633C120.44 10.291 119.792 10.12 119.09 10.12C118.406 10.12 117.758 10.3 117.146 10.66C116.552 11.002 116.066 11.506 115.688 12.172C115.328 12.838 115.148 13.621 115.148 14.521C115.148 15.421 115.328 16.204 115.688 16.87C116.066 17.536 116.552 18.049 117.146 18.409C117.758 18.751 118.406 18.922 119.09 18.922C119.792 18.922 120.44 18.742 121.034 18.382C121.646 18.022 122.132 17.509 122.492 16.843C122.87 16.177 123.059 15.385 123.059 14.467ZM128.695 14.467C128.695 12.955 128.992 11.614 129.586 10.444C130.198 9.274 131.017 8.374 132.043 7.744C133.087 7.114 134.248 6.799 135.526 6.799C136.642 6.799 137.614 7.024 138.442 7.474C139.288 7.924 139.963 8.491 140.467 9.175V7.042H144.274V22H140.467V19.813C139.981 20.515 139.306 21.1 138.442 21.568C137.596 22.018 136.615 22.243 135.499 22.243C134.239 22.243 133.087 21.919 132.043 21.271C131.017 20.623 130.198 19.714 129.586 18.544C128.992 17.356 128.695 15.997 128.695 14.467ZM140.467 14.521C140.467 13.603 140.287 12.82 139.927 12.172C139.567 11.506 139.081 11.002 138.469 10.66C137.857 10.3 137.2 10.12 136.498 10.12C135.796 10.12 135.148 10.291 134.554 10.633C133.96 10.975 133.474 11.479 133.096 12.145C132.736 12.793 132.556 13.567 132.556 14.467C132.556 15.367 132.736 16.159 133.096 16.843C133.474 17.509 133.96 18.022 134.554 18.382C135.166 18.742 135.814 18.922 136.498 18.922C137.2 18.922 137.857 18.751 138.469 18.409C139.081 18.049 139.567 17.545 139.927 16.897C140.287 16.231 140.467 15.439 140.467 14.521ZM153.825 6.799C154.941 6.799 155.922 7.024 156.768 7.474C157.614 7.906 158.28 8.473 158.766 9.175V7.042H162.573V22.108C162.573 23.494 162.294 24.727 161.736 25.807C161.178 26.905 160.341 27.769 159.225 28.399C158.109 29.047 156.759 29.371 155.175 29.371C153.051 29.371 151.305 28.876 149.937 27.886C148.587 26.896 147.822 25.546 147.642 23.836H151.395C151.593 24.52 152.016 25.06 152.664 25.456C153.33 25.87 154.131 26.077 155.067 26.077C156.165 26.077 157.056 25.744 157.74 25.078C158.424 24.43 158.766 23.44 158.766 22.108V19.786C158.28 20.488 157.605 21.073 156.741 21.541C155.895 22.009 154.923 22.243 153.825 22.243C152.565 22.243 151.413 21.919 150.369 21.271C149.325 20.623 148.497 19.714 147.885 18.544C147.291 17.356 146.994 15.997 146.994 14.467C146.994 12.955 147.291 11.614 147.885 10.444C148.497 9.274 149.316 8.374 150.342 7.744C151.386 7.114 152.547 6.799 153.825 6.799ZM158.766 14.521C158.766 13.603 158.586 12.82 158.226 12.172C157.866 11.506 157.38 11.002 156.768 10.66C156.156 10.3 155.499 10.12 154.797 10.12C154.095 10.12 153.447 10.291 152.853 10.633C152.259 10.975 151.773 11.479 151.395 12.145C151.035 12.793 150.855 13.567 150.855 14.467C150.855 15.367 151.035 16.159 151.395 16.843C151.773 17.509 152.259 18.022 152.853 18.382C153.465 18.742 154.113 18.922 154.797 18.922C155.499 18.922 156.156 18.751 156.768 18.409C157.38 18.049 157.866 17.545 158.226 16.897C158.586 16.231 158.766 15.439 158.766 14.521ZM180.169 14.197C180.169 14.737 180.133 15.223 180.061 15.655H169.126C169.216 16.735 169.594 17.581 170.26 18.193C170.926 18.805 171.745 19.111 172.717 19.111C174.121 19.111 175.12 18.508 175.714 17.302H179.791C179.359 18.742 178.531 19.93 177.307 20.866C176.083 21.784 174.58 22.243 172.798 22.243C171.358 22.243 170.062 21.928 168.91 21.298C167.776 20.65 166.885 19.741 166.237 18.571C165.607 17.401 165.292 16.051 165.292 14.521C165.292 12.973 165.607 11.614 166.237 10.444C166.867 9.274 167.749 8.374 168.883 7.744C170.017 7.114 171.322 6.799 172.798 6.799C174.22 6.799 175.489 7.105 176.605 7.717C177.739 8.329 178.612 9.202 179.224 10.336C179.854 11.452 180.169 12.739 180.169 14.197ZM176.254 13.117C176.236 12.145 175.885 11.371 175.201 10.795C174.517 10.201 173.68 9.904 172.69 9.904C171.754 9.904 170.962 10.192 170.314 10.768C169.684 11.326 169.297 12.109 169.153 13.117H176.254ZM4.643 51.003H10.853V54H0.863V35.154H4.643V51.003ZM19.8976 54.243C18.4576 54.243 17.1616 53.928 16.0096 53.298C14.8576 52.65 13.9486 51.741 13.2826 50.571C12.6346 49.401 12.3106 48.051 12.3106 46.521C12.3106 44.991 12.6436 43.641 13.3096 42.471C13.9936 41.301 14.9206 40.401 16.0906 39.771C17.2606 39.123 18.5656 38.799 20.0056 38.799C21.4456 38.799 22.7506 39.123 23.9206 39.771C25.0906 40.401 26.0086 41.301 26.6746 42.471C27.3586 43.641 27.7006 44.991 27.7006 46.521C27.7006 48.051 27.3496 49.401 26.6476 50.571C25.9636 51.741 25.0276 52.65 23.8396 53.298C22.6696 53.928 21.3556 54.243 19.8976 54.243ZM19.8976 50.949C20.5816 50.949 21.2206 50.787 21.8146 50.463C22.4266 50.121 22.9126 49.617 23.2726 48.951C23.6326 48.285 23.8126 47.475 23.8126 46.521C23.8126 45.099 23.4346 44.01 22.6786 43.254C21.9406 42.48 21.0316 42.093 19.9516 42.093C18.8716 42.093 17.9626 42.48 17.2246 43.254C16.5046 44.01 16.1446 45.099 16.1446 46.521C16.1446 47.943 16.4956 49.041 17.1976 49.815C17.9176 50.571 18.8176 50.949 19.8976 50.949ZM36.3324 38.799C37.4484 38.799 38.4294 39.024 39.2754 39.474C40.1214 39.906 40.7874 40.473 41.2734 41.175V39.042H45.0804V54.108C45.0804 55.494 44.8014 56.727 44.2434 57.807C43.6854 58.905 42.8484 59.769 41.7324 60.399C40.6164 61.047 39.2664 61.371 37.6824 61.371C35.5584 61.371 33.8124 60.876 32.4444 59.886C31.0944 58.896 30.3294 57.546 30.1494 55.836H33.9024C34.1004 56.52 34.5234 57.06 35.1714 57.456C35.8374 57.87 36.6384 58.077 37.5744 58.077C38.6724 58.077 39.5634 57.744 40.2474 57.078C40.9314 56.43 41.2734 55.44 41.2734 54.108V51.786C40.7874 52.488 40.1124 53.073 39.2484 53.541C38.4024 54.009 37.4304 54.243 36.3324 54.243C35.0724 54.243 33.9204 53.919 32.8764 53.271C31.8324 52.623 31.0044 51.714 30.3924 50.544C29.7984 49.356 29.5014 47.997 29.5014 46.467C29.5014 44.955 29.7984 43.614 30.3924 42.444C31.0044 41.274 31.8234 40.374 32.8494 39.744C33.8934 39.114 35.0544 38.799 36.3324 38.799ZM41.2734 46.521C41.2734 45.603 41.0934 44.82 40.7334 44.172C40.3734 43.506 39.8874 43.002 39.2754 42.66C38.6634 42.3 38.0064 42.12 37.3044 42.12C36.6024 42.12 35.9544 42.291 35.3604 42.633C34.7664 42.975 34.2804 43.479 33.9024 44.145C33.5424 44.793 33.3624 45.567 33.3624 46.467C33.3624 47.367 33.5424 48.159 33.9024 48.843C34.2804 49.509 34.7664 50.022 35.3604 50.382C35.9724 50.742 36.6204 50.922 37.3044 50.922C38.0064 50.922 38.6634 50.751 39.2754 50.409C39.8874 50.049 40.3734 49.545 40.7334 48.897C41.0934 48.231 41.2734 47.439 41.2734 46.521ZM55.4142 54.243C53.9742 54.243 52.6782 53.928 51.5262 53.298C50.3742 52.65 49.4652 51.741 48.7992 50.571C48.1512 49.401 47.8272 48.051 47.8272 46.521C47.8272 44.991 48.1602 43.641 48.8262 42.471C49.5102 41.301 50.4372 40.401 51.6072 39.771C52.7772 39.123 54.0822 38.799 55.5222 38.799C56.9622 38.799 58.2672 39.123 59.4372 39.771C60.6072 40.401 61.5252 41.301 62.1912 42.471C62.8752 43.641 63.2172 44.991 63.2172 46.521C63.2172 48.051 62.8662 49.401 62.1642 50.571C61.4802 51.741 60.5442 52.65 59.3562 53.298C58.1862 53.928 56.8722 54.243 55.4142 54.243ZM55.4142 50.949C56.0982 50.949 56.7372 50.787 57.3312 50.463C57.9432 50.121 58.4292 49.617 58.7892 48.951C59.1492 48.285 59.3292 47.475 59.3292 46.521C59.3292 45.099 58.9512 44.01 58.1952 43.254C57.4572 42.48 56.5482 42.093 55.4682 42.093C54.3882 42.093 53.4792 42.48 52.7412 43.254C52.0212 44.01 51.6612 45.099 51.6612 46.521C51.6612 47.943 52.0122 49.041 52.7142 49.815C53.4342 50.571 54.3342 50.949 55.4142 50.949ZM70.391 42.147V49.383C70.391 49.887 70.508 50.256 70.742 50.49C70.994 50.706 71.408 50.814 71.984 50.814H73.739V54H71.363C68.177 54 66.584 52.452 66.584 49.356V42.147H64.802V39.042H66.584V35.343H70.391V39.042H73.739V42.147H70.391ZM90.7677 39.042L81.5067 61.074H77.4837L80.7237 53.622L74.7297 39.042H78.9687L82.8297 49.491L86.7447 39.042H90.7677ZM96.5854 41.202C97.0714 40.518 97.7374 39.951 98.5834 39.501C99.4474 39.033 100.428 38.799 101.526 38.799C102.804 38.799 103.956 39.114 104.982 39.744C106.026 40.374 106.845 41.274 107.439 42.444C108.051 43.596 108.357 44.937 108.357 46.467C108.357 47.997 108.051 49.356 107.439 50.544C106.845 51.714 106.026 52.623 104.982 53.271C103.956 53.919 102.804 54.243 101.526 54.243C100.428 54.243 99.4564 54.018 98.6104 53.568C97.7824 53.118 97.1074 52.551 96.5854 51.867V61.128H92.8054V39.042H96.5854V41.202ZM104.496 46.467C104.496 45.567 104.307 44.793 103.929 44.145C103.569 43.479 103.083 42.975 102.471 42.633C101.877 42.291 101.229 42.12 100.527 42.12C99.8434 42.12 99.1954 42.3 98.5834 42.66C97.9894 43.002 97.5034 43.506 97.1254 44.172C96.7654 44.838 96.5854 45.621 96.5854 46.521C96.5854 47.421 96.7654 48.204 97.1254 48.87C97.5034 49.536 97.9894 50.049 98.5834 50.409C99.1954 50.751 99.8434 50.922 100.527 50.922C101.229 50.922 101.877 50.742 102.471 50.382C103.083 50.022 103.569 49.509 103.929 48.843C104.307 48.177 104.496 47.385 104.496 46.467ZM125.009 46.197C125.009 46.737 124.973 47.223 124.901 47.655H113.966C114.056 48.735 114.434 49.581 115.1 50.193C115.766 50.805 116.585 51.111 117.557 51.111C118.961 51.111 119.96 50.508 120.554 49.302H124.631C124.199 50.742 123.371 51.93 122.147 52.866C120.923 53.784 119.42 54.243 117.638 54.243C116.198 54.243 114.902 53.928 113.75 53.298C112.616 52.65 111.725 51.741 111.077 50.571C110.447 49.401 110.132 48.051 110.132 46.521C110.132 44.973 110.447 43.614 111.077 42.444C111.707 41.274 112.589 40.374 113.723 39.744C114.857 39.114 116.162 38.799 117.638 38.799C119.06 38.799 120.329 39.105 121.445 39.717C122.579 40.329 123.452 41.202 124.064 42.336C124.694 43.452 125.009 44.739 125.009 46.197ZM121.094 45.117C121.076 44.145 120.725 43.371 120.041 42.795C119.357 42.201 118.52 41.904 117.53 41.904C116.594 41.904 115.802 42.192 115.154 42.768C114.524 43.326 114.137 44.109 113.993 45.117H121.094Z" fill="black"/>
</svg>
