<svg width="863" height="23" viewBox="0 0 863 23" fill="none" xmlns="http://www.w3.org/2000/svg">
<path d="M431 13.9208C432.657 13.9208 434 12.5105 434 10.7708C434 9.03113 432.657 7.62085 431 7.62085C429.343 7.62085 428 9.03113 428 10.7708C428 12.5105 429.343 13.9208 431 13.9208Z" fill="#767676"/>
<path d="M431 3.4209C427.141 3.4209 424 6.71893 424 10.7708C424 14.8227 427.141 18.1207 431 18.1207C434.859 18.1207 438 14.8227 438 10.7708C438 6.71893 434.859 3.4209 431 3.4209ZM431 15.4823C428.487 15.4823 426.423 13.315 426.423 10.6766C426.423 8.03814 428.487 5.87086 431 5.87086C433.513 5.87086 435.577 8.03814 435.577 10.6766C435.577 13.315 433.513 15.4823 431 15.4823Z" fill="#767676"/>
<path d="M43.1581 10.7505C41.2027 10.7505 39.2473 10.1273 37.711 8.72504C36.5936 7.79021 35.4762 6.38798 35.0572 4.67413C33.8002 7.01119 31.7051 8.56924 29.7498 9.50406C26.677 7.94602 22.9059 5.14154 21.3695 0C18.2968 5.76476 12.9893 8.56924 8.38021 9.97147C3.7711 11.3737 0 11.3737 0 11.3737C0 11.3737 3.7711 11.3737 8.38021 12.776C12.9893 14.1782 18.2968 16.9827 21.3695 22.5916C22.9059 17.6059 26.5373 14.6456 29.7498 13.0876C31.7051 14.0224 33.8002 15.5804 35.0572 17.9175C35.4762 16.5153 36.1746 15.4246 36.8729 14.6456C38.549 12.776 40.9234 11.8411 43.2978 11.8411L43.1581 10.7505Z" fill="#767676"/>
<path d="M34.0796 9.19244V11.3737V13.3992H424.877V11.3737V9.19244H34.0796Z" fill="#767676"/>
<path d="M853.497 9.97149C848.887 8.56925 843.58 5.76478 840.507 0.155823C838.971 5.14156 835.339 8.10184 832.127 9.65988C830.172 8.72506 828.077 7.16702 826.82 4.82995C826.261 6.6996 825.283 7.94604 824.166 8.88086C822.629 10.2831 820.674 10.9063 818.719 10.9063V11.9969C821.093 11.9969 823.328 12.9318 825.144 14.8014C825.982 15.7363 826.54 16.8269 826.959 18.0733C828.216 15.7363 830.311 14.1782 832.267 13.2434C835.34 14.8014 839.111 17.7617 840.647 22.7474C843.72 17.1385 849.027 14.334 853.636 12.9318C858.245 11.5295 862.017 11.5295 862.017 11.5295C862.017 11.5295 858.106 11.3737 853.497 9.97149Z" fill="#767676"/>
<path d="M827.797 9.19244H437V13.3992H827.797V9.19244Z" fill="#767676"/>
</svg>
