<svg width="29" height="30" viewBox="0 0 29 30" fill="none" xmlns="http://www.w3.org/2000/svg">
<path fill-rule="evenodd" clip-rule="evenodd" d="M9.40039 0H20.0527C24.9546 0 28.9297 4.19812 28.9297 9.375V20.625C28.9297 25.8019 24.9546 30 20.0527 30H9.40039C4.49854 30 0.523438 25.8019 0.523438 20.625V9.375C0.523438 4.19812 4.49854 0 9.40039 0ZM20.0526 27.1875C23.4791 27.1875 26.2665 24.2437 26.2665 20.625V9.375C26.2665 5.75625 23.4791 2.8125 20.0526 2.8125H9.40027C5.97376 2.8125 3.1864 5.75625 3.1864 9.375V20.625C3.1864 24.2437 5.97376 27.1875 9.40027 27.1875H20.0526Z" fill="white"/>
<path fill-rule="evenodd" clip-rule="evenodd" d="M7.625 15C7.625 10.8581 10.8047 7.5 14.7265 7.5C18.6483 7.5 21.828 10.8581 21.828 15C21.828 19.1419 18.6483 22.5 14.7265 22.5C10.8047 22.5 7.625 19.1419 7.625 15ZM10.2878 15C10.2878 17.5837 12.2798 19.6875 14.7263 19.6875C17.1728 19.6875 19.1648 17.5837 19.1648 15C19.1648 12.4144 17.1728 10.3125 14.7263 10.3125C12.2798 10.3125 10.2878 12.4144 10.2878 15Z" fill="white"/>
<ellipse cx="22.3604" cy="6.93736" rx="0.94635" ry="0.999375" fill="white"/>
</svg>
