<svg width="29" height="26" viewBox="0 0 29 26" fill="none" xmlns="http://www.w3.org/2000/svg">
<path d="M28.875 3.61268C27.8186 4.10205 26.693 4.42643 25.5195 4.58393C26.7268 3.82268 27.6482 2.62643 28.0814 1.18455C26.9558 1.8933 25.713 2.39393 24.3886 2.6733C23.3198 1.47143 21.7965 0.727051 20.1348 0.727051C16.9106 0.727051 14.315 3.4908 14.315 6.87893C14.315 7.36643 14.3541 7.83518 14.45 8.28142C9.60846 8.03205 5.32444 5.58143 2.44653 1.8483C1.9441 2.76893 1.64938 3.82268 1.64938 4.95705C1.64938 7.08705 2.68799 8.97517 4.23613 10.0683C3.3005 10.0496 2.38262 9.76268 1.605 9.3108C1.605 9.32955 1.605 9.35393 1.605 9.3783C1.605 12.3671 3.62362 14.8496 6.27073 15.4214C5.7967 15.5583 5.28006 15.6239 4.74389 15.6239C4.37106 15.6239 3.99468 15.6014 3.64137 15.5189C4.39591 17.9545 6.53703 19.7452 9.08294 19.8033C7.10161 21.4402 4.58588 22.4264 1.86243 22.4264C1.38485 22.4264 0.926801 22.4039 0.46875 22.342C3.04839 24.0989 6.10562 25.102 9.40252 25.102C20.1188 25.102 25.9776 15.727 25.9776 7.6008C25.9776 7.32893 25.9687 7.06642 25.9563 6.8058C27.112 5.93955 28.0832 4.85768 28.875 3.61268Z" fill="white"/>
</svg>
