<svg width="20" height="20" viewBox="0 0 20 20" fill="none" xmlns="http://www.w3.org/2000/svg">
<path d="M15.564 16.3392L10.8015 11.5759C8.68288 13.0821 5.76352 12.7136 4.08555 10.7283C2.40758 8.74294 2.53079 5.80301 4.36899 3.96502C6.2067 2.12622 9.14693 2.00248 11.1326 3.68036C13.1184 5.35825 13.487 8.27789 11.9807 10.3967L16.7432 15.16L15.5648 16.3384L15.564 16.3392ZM7.90399 4.16667C6.32374 4.16632 4.9604 5.27558 4.63938 6.82288C4.31837 8.37018 5.12791 9.93024 6.57788 10.5585C8.02786 11.1869 9.71974 10.7107 10.6292 9.41839C11.5386 8.12608 11.4157 6.37278 10.3348 5.22002L10.839 5.72002L10.2707 5.15335L10.2607 5.14335C9.63714 4.516 8.78848 4.16429 7.90399 4.16667Z" fill="white"/>
</svg>
