<svg width="25" height="214" viewBox="0 0 25 214" fill="none" xmlns="http://www.w3.org/2000/svg">
<path d="M6 3.7793L6 1.69629L18.8496 1.69629L18.8496 8.94727L17.0742 8.94727L17.0742 3.7793L13.0576 3.7793L13.0576 8.62207L11.2734 8.62207L11.2734 3.7793L6 3.7793ZM10.8779 19.6787C9.29004 19.6787 8.05078 19.2715 7.16016 18.457C6.26953 17.6426 5.82422 16.5088 5.82422 15.0557C5.82422 14.1475 6.0293 13.3447 6.43945 12.6475C6.84961 11.9502 7.43848 11.4141 8.20605 11.0391C8.97363 10.6641 9.86426 10.4766 10.8779 10.4766C12.4541 10.4766 13.6846 10.8809 14.5693 11.6895C15.4541 12.498 15.8965 13.6377 15.8965 15.1084C15.8965 16.5146 15.4424 17.6279 14.5342 18.4482C13.6318 19.2686 12.4131 19.6787 10.8779 19.6787ZM10.8779 12.6035C8.63379 12.6035 7.51172 13.4326 7.51172 15.0908C7.51172 16.7314 8.63379 17.5518 10.8779 17.5518C13.0986 17.5518 14.209 16.7256 14.209 15.0732C14.209 14.2061 13.9219 13.5762 13.3477 13.1836C12.7734 12.7969 11.9502 12.6035 10.8779 12.6035ZM6 24.126L6 22.0605L19.6758 22.0605L19.6758 24.126L6 24.126ZM6 29.1533L6 27.0879L19.6758 27.0879L19.6758 29.1533L6 29.1533ZM10.8779 40.7373C9.29004 40.7373 8.05078 40.3301 7.16015 39.5156C6.26953 38.7012 5.82422 37.5674 5.82422 36.1143C5.82422 35.2061 6.0293 34.4033 6.43945 33.7061C6.84961 33.0088 7.43848 32.4727 8.20605 32.0977C8.97363 31.7227 9.86426 31.5352 10.8779 31.5352C12.4541 31.5352 13.6846 31.9395 14.5693 32.748C15.4541 33.5566 15.8965 34.6963 15.8965 36.167C15.8965 37.5732 15.4424 38.6865 14.5342 39.5068C13.6318 40.3271 12.4131 40.7373 10.8779 40.7373ZM10.8779 33.6621C8.63379 33.6621 7.51172 34.4912 7.51172 36.1494C7.51172 37.79 8.63379 38.6104 10.8779 38.6104C13.0986 38.6104 14.209 37.7842 14.209 36.1318C14.209 35.2646 13.9219 34.6348 13.3477 34.2422C12.7734 33.8555 11.9502 33.6621 10.8779 33.6621ZM6 51.0908L10.5352 49.834C11.0156 49.6816 12.1318 49.4062 13.8838 49.0078L13.8838 48.9287C12.3018 48.5889 11.1797 48.3193 10.5176 48.1201L6 46.8281L6 44.543L15.7207 41.8184L15.7207 43.9277L10.9307 45.167C9.74707 45.4482 8.7334 45.6475 7.88965 45.7646L7.88965 45.8174C8.31738 45.876 8.80664 45.9639 9.35742 46.0811C9.91406 46.2041 10.3301 46.3096 10.6055 46.3975L15.7207 47.874L15.7207 50.1416L10.6055 51.5742C10.3184 51.6621 9.8789 51.7705 9.28711 51.8994C8.69531 52.0342 8.23535 52.1133 7.90722 52.1367L7.90722 52.207C8.62793 52.2949 9.63574 52.5 10.9307 52.8223L15.7207 54.0791L15.7207 56.1533L6 53.4111L6 51.0908ZM6 69.3633L7.27441 69.0732L7.27441 68.9678C6.82324 68.6807 6.46875 68.2705 6.21093 67.7373C5.95312 67.21 5.82422 66.6064 5.82422 65.9268C5.82422 64.749 6.11718 63.8701 6.70312 63.29C7.28906 62.71 8.17676 62.4199 9.36621 62.4199L15.7207 62.4199L15.7207 64.5029L9.72656 64.5029C8.98242 64.5029 8.42285 64.6553 8.04785 64.96C7.67871 65.2646 7.49414 65.7422 7.49414 66.3926C7.49414 67.2598 7.75195 67.8955 8.26758 68.2998C8.78906 68.71 9.65918 68.915 10.8779 68.915L15.7207 68.915L15.7207 70.9893L6 70.9893L6 69.3633ZM8.76855 80.4639C7.81933 80.4639 7.08984 80.1182 6.58007 79.4268C6.07617 78.7354 5.82422 77.7451 5.82422 76.4561C5.82422 75.1611 6.0205 74.1211 6.41308 73.3359L8.19726 73.3359C7.66992 74.4785 7.40625 75.542 7.40625 76.5264C7.40625 77.7979 7.79004 78.4336 8.55761 78.4336C8.80371 78.4336 9.00879 78.3633 9.17285 78.2227C9.33691 78.082 9.50683 77.8506 9.68261 77.5283C9.8584 77.2061 10.0576 76.7578 10.2803 76.1836C10.7139 75.0645 11.1475 74.3057 11.5811 73.9072C12.0146 73.5146 12.5771 73.3184 13.2686 73.3184C14.1006 73.3184 14.7451 73.6523 15.2021 74.3203C15.665 74.9941 15.8965 75.9082 15.8965 77.0625C15.8965 78.2051 15.665 79.2861 15.2021 80.3057L13.6465 79.6377C14.0801 78.5889 14.2969 77.707 14.2969 76.9922C14.2969 75.9023 13.9863 75.3574 13.3652 75.3574C13.0605 75.3574 12.8027 75.498 12.5918 75.7793C12.3809 76.0664 12.0908 76.6875 11.7217 77.6426C11.4111 78.4453 11.1269 79.0283 10.8691 79.3916C10.6113 79.7549 10.3125 80.0244 9.97265 80.2002C9.63867 80.376 9.2373 80.4639 8.76855 80.4639Z" fill="white"/>
<path d="M8.8 104H17.2C20.4032 104 23 106.597 23 109.8V118.2C23 121.403 20.4032 124 17.2 124H8.8C5.59675 124 3 121.403 3 118.2V109.8C3 106.597 5.59675 104 8.8 104ZM8.6 106C6.61177 106 5 107.612 5 109.6V118.4C5 120.388 6.61177 122 8.6 122H17.4C19.3882 122 21 120.388 21 118.4V109.6C21 107.612 19.3882 106 17.4 106H8.6ZM18.25 107.5C18.9404 107.5 19.5 108.06 19.5 108.75C19.5 109.44 18.9404 110 18.25 110C17.5596 110 17 109.44 17 108.75C17 108.06 17.5596 107.5 18.25 107.5ZM13 109C15.7614 109 18 111.239 18 114C18 116.761 15.7614 119 13 119C10.2386 119 8 116.761 8 114C8 111.239 10.2386 109 13 109ZM13 111C11.3431 111 10 112.343 10 114C10 115.657 11.3431 117 13 117C14.6569 117 16 115.657 16 114C16 112.343 14.6569 111 13 111Z" fill="white"/>
<path d="M23.9184 152.012C23.1488 152.354 22.3216 152.584 21.4536 152.688C22.3395 152.157 23.0201 151.316 23.3405 150.314C22.5112 150.806 21.5928 151.163 20.6152 151.355C19.8324 150.521 18.7171 150 17.4827 150C15.1126 150 13.1909 151.921 13.1909 154.292C13.1909 154.628 13.2289 154.955 13.3021 155.27C9.73532 155.091 6.57298 153.382 4.45632 150.786C4.08688 151.419 3.87524 152.157 3.87524 152.943C3.87524 154.432 4.63287 155.746 5.78446 156.515C5.08102 156.493 4.41919 156.3 3.84062 155.978C3.84021 155.996 3.84021 156.014 3.84021 156.032C3.84021 158.112 5.31956 159.846 7.28282 160.241C6.92272 160.339 6.54357 160.391 6.15217 160.391C5.87563 160.391 5.60678 160.364 5.34469 160.314C5.89084 162.019 7.47576 163.26 9.35377 163.295C7.88499 164.446 6.0345 165.132 4.02376 165.132C3.67735 165.132 3.33574 165.111 3 165.072C4.89926 166.289 7.15514 167 9.57873 167C17.4726 167 21.7894 160.46 21.7894 154.789C21.7894 154.603 21.7852 154.418 21.7769 154.234C22.6155 153.629 23.3431 152.873 23.9184 152.012Z" fill="white"/>
<g clip-path="url(#clip0_5_20)">
<path d="M15.9917 195.819H18V192.162C17.6535 192.112 16.462 192 15.0742 192C12.1787 192 10.1952 193.904 10.1952 197.404V200.625H7V204.713H10.1952V215H14.1127V204.714H17.1787L17.6654 200.626H14.1118V197.809C14.1127 196.628 14.417 195.819 15.9917 195.819Z" fill="white"/>
</g>
<defs>
<clipPath id="clip0_5_20">
<rect width="24" height="24" fill="white" transform="translate(1 190)"/>
</clipPath>
</defs>
</svg>
