<svg width="24" height="24" viewBox="0 0 24 24" fill="none" xmlns="http://www.w3.org/2000/svg">
<path d="M22.9184 6.01238C22.1488 6.35373 21.3216 6.58442 20.4536 6.68815C21.3395 6.15701 22.0201 5.31598 22.3405 4.31378C21.5112 4.80564 20.5928 5.16278 19.6152 5.3552C18.8324 4.52112 17.7171 4 16.4827 4C14.1126 4 12.1909 5.92147 12.1909 8.29155C12.1909 8.6279 12.2289 8.95546 12.3021 9.2696C8.73532 9.0906 5.57298 7.38203 3.45632 4.78551C3.08688 5.41935 2.87524 6.15656 2.87524 6.94309C2.87524 8.43204 3.63287 9.74563 4.78446 10.5153C4.08102 10.4929 3.41919 10.2999 2.84062 9.97846C2.84021 9.99639 2.84021 10.0143 2.84021 10.0324C2.84021 12.1118 4.31956 13.8463 6.28282 14.2406C5.92272 14.3387 5.54357 14.3912 5.15217 14.3912C4.87563 14.3912 4.60678 14.3642 4.34469 14.3142C4.89084 16.0191 6.47576 17.26 8.35377 17.2945C6.88499 18.4457 5.0345 19.1318 3.02376 19.1318C2.67735 19.1318 2.33574 19.1114 2 19.0717C3.89926 20.2894 6.15514 21 8.57873 21C16.4726 21 20.7894 14.4605 20.7894 8.78918C20.7894 8.60314 20.7852 8.41805 20.7769 8.23395C21.6155 7.62886 22.3431 6.87302 22.9184 6.01238Z" fill="white"/>
</svg>
