<svg width="122" height="122" viewBox="0 0 122 122" fill="none" xmlns="http://www.w3.org/2000/svg">
<circle cx="61" cy="61" r="61" fill="#3D3935"/>
<path d="M83.1367 57.0503C86.0012 57.2631 94.9814 58.6148 101.91 67.1684C102.377 67.7401 103.038 68.0949 103.769 68.166C103.957 68.1843 104.143 68.1832 104.325 68.1643C104.849 68.1097 105.34 67.9053 105.733 67.5783C105.895 67.4538 106.036 67.318 106.162 67.1614C106.967 66.1662 106.966 64.7169 106.158 63.7115C97.2351 52.712 85.659 51.6342 82.7181 51.5423C82.1955 50.3429 81.386 49.2457 80.2976 48.3603L80.164 48.2569C79.1287 47.4594 78.044 46.5691 76.7522 45.4542C73.9437 43.0325 68.3271 39.018 62.2504 39.3345C61.8766 39.356 61.5727 39.5661 61.4159 39.8888C61.2602 40.2124 61.2905 40.596 61.4971 40.8895L66.44 47.9205L58.5608 44.5209C58.2238 44.3766 57.8329 44.429 57.5481 44.6642C57.264 44.8974 57.1327 45.2698 57.208 45.6304C58.1669 50.2012 60.6874 54.3397 64.3053 57.2829C64.5958 57.5192 64.8913 57.7482 65.2226 57.987L68.5433 60.2393C68.9076 60.6845 69.319 61.1019 69.7835 61.4727C70.8262 62.3075 72.0349 62.8607 73.3217 63.1163C73.9991 65.9268 77.4215 77.1376 90.0411 83.6435C90.523 83.889 91.0524 83.9782 91.565 83.9248C92.2689 83.8514 92.9379 83.5092 93.4038 82.9333C93.5357 82.7702 93.6418 82.6012 93.7054 82.4607C94.0433 81.8157 94.1092 81.076 93.8904 80.3775C93.6702 79.6744 93.1888 79.1002 92.5306 78.7578C82.6787 73.6883 79.5525 65.1236 78.7782 62.3798C79.9239 61.8104 80.9366 60.9961 81.7068 59.9767C82.3893 59.0729 82.863 58.0784 83.1367 57.0503ZM104.627 64.953C104.854 65.2348 104.856 65.6398 104.632 65.9171C104.603 65.9531 104.575 65.9803 104.506 66.034C104.354 66.1613 104.155 66.2219 103.959 66.2006C103.752 66.1805 103.565 66.0797 103.436 65.9206C96.1294 56.9003 86.8876 55.3454 83.4079 55.0868C83.4196 54.5702 83.384 54.0551 83.3011 53.5461C86.7728 53.7648 96.7626 55.2577 104.627 64.953ZM65.5453 55.7499C62.7904 53.5087 60.7406 50.501 59.6457 47.1387L67.7898 50.6528C66.6999 52.5065 66.3664 54.6511 66.8125 56.683L66.3493 56.3689C66.0723 56.169 65.8062 55.9621 65.5453 55.7499ZM91.6288 80.5125C91.8138 80.6085 91.9496 80.7708 92.0119 80.9689C92.0726 81.1623 92.0541 81.3649 91.9407 81.5841C91.9288 81.6096 91.9119 81.6424 91.8743 81.689C91.6498 81.9654 91.2541 82.0464 90.9367 81.8856C79.8063 76.1474 76.303 66.5825 75.3909 63.2609C75.5505 63.253 75.7095 63.2504 75.8699 63.2337C75.9302 63.2274 75.9913 63.2201 76.0514 63.2128C76.3463 63.1759 76.6373 63.1218 76.9244 63.0548C77.8484 66.2121 81.2934 75.1946 91.6288 80.5125ZM75.8065 61.2529C74.0489 61.4653 72.3513 61.0014 71.0098 59.9285C70.6144 59.613 70.2644 59.2607 69.9653 58.877C68.0935 56.5002 68.1172 53.1948 70.026 50.8349C70.0626 50.7898 70.0799 50.7372 70.1072 50.6882C70.1245 50.6575 70.1519 50.6362 70.1662 50.6031C70.171 50.5919 70.169 50.5799 70.1734 50.5686C70.2089 50.4768 70.2253 50.3822 70.2323 50.286C70.2342 50.2603 70.2445 50.2351 70.2443 50.2095C70.2436 50.0919 70.221 49.9757 70.1791 49.8651C70.1626 49.8215 70.1326 49.7859 70.1102 49.745C70.0802 49.6904 70.058 49.6322 70.0173 49.5833L64.2432 41.3681C69.1347 41.9236 73.6237 45.3596 75.4679 46.9511C76.7892 48.0901 77.9004 49.0029 78.9724 49.8276L79.0576 49.8934C81.7649 52.0958 82.2387 56.0008 80.1361 58.7832C79.0999 60.1563 77.5624 61.0331 75.8065 61.2529Z" fill="#F2F2F2"/>
<path d="M72.5992 52.8855C72.0083 53.616 71.7367 54.5342 71.8343 55.4702C71.9319 56.4063 72.387 57.2488 73.1159 57.8417C73.868 58.4535 74.7987 58.7016 75.6929 58.6084C76.588 58.5151 77.4475 58.0804 78.0582 57.3264C78.6491 56.5959 78.9207 55.6777 78.8231 54.7416C78.7256 53.8056 78.2704 52.9631 77.5415 52.3702C76.0353 51.1458 73.8187 51.3788 72.5992 52.8855ZM76.5287 56.0821C75.9917 56.746 75.0161 56.8457 74.3559 56.3087C73.6946 55.7707 73.5927 54.7925 74.1287 54.1298C74.3968 53.7984 74.7742 53.6078 75.1682 53.5667C75.5613 53.5257 75.9709 53.6343 76.3015 53.9032C76.9628 54.4412 77.0648 55.4194 76.5287 56.0821Z" fill="#F2F2F2"/>
<path d="M35.8998 48.9399L39.3216 51.9181V75.858L30.539 79.4089L35.8998 48.9399ZM41.6028 51.9181L45.0246 48.9399L48.4464 68.298L50.3854 79.2944L41.6028 75.7435V51.9181ZM44.1121 43.3272L44.6824 46.3054L40.5762 49.8563L36.4701 46.3054L37.0404 43.3272H44.1121ZM40.4622 88.8016L31.3374 81.4707L40.4622 77.8053L49.587 81.4707L48.9026 82.0434L40.4622 88.8016ZM53.1228 80.0962L50.8416 68.0689L46.2792 41.9527C46.1652 41.3799 45.7089 41.0363 45.1386 41.0363H41.7168V36.34C48.3323 34.8509 47.4198 25.1145 40.5762 25C37.3826 25 34.8733 27.52 34.8733 30.7273C34.8733 31.4145 35.3295 31.8727 36.0139 31.8727C36.6982 31.8727 37.1544 31.4145 37.1544 30.7273C37.1544 28.78 38.6372 27.2909 40.5762 27.2909C42.5153 27.2909 43.998 28.78 43.998 30.7273C43.998 32.6745 42.5153 34.1636 40.5762 34.1636C39.8919 34.1636 39.4356 34.6218 39.4356 35.3091V41.0363H36.0139C35.4436 41.0363 34.9873 41.3799 34.8733 41.9527L28.0297 80.898C27.9156 81.3562 28.1437 81.6998 28.4859 82.0434L39.8919 91.207C40.3481 91.5507 40.9184 91.5507 41.2606 91.207L51.526 82.9598C51.8681 82.6162 52.8947 81.9289 53.0087 81.5853C53.0087 81.1271 53.2369 80.5544 53.1228 80.0962Z" fill="#F2F2F2"/>
</svg>
