<svg width="122" height="122" viewBox="0 0 122 122" fill="none" xmlns="http://www.w3.org/2000/svg">
<circle cx="61" cy="61" r="61" fill="#3D3D3C"/>
<path d="M88.912 75.4445L73.552 65.0403L88.911 54.6362C91.472 52.9016 93 49.9996 93 46.874C93 44.9179 92.409 43.0421 91.29 41.4499L90.913 40.9144C88.785 37.8873 85.33 36.0806 81.669 36.0806C77.226 36.0806 73.168 38.7358 71.33 42.846C69.784 46.3009 69 49.9782 69 53.7745C69 55.5751 68.501 57.3584 67.589 58.8978L54 42.6875V31H31V94H54V87.3941L67.59 71.1838C68.501 72.7233 69 74.5066 69 76.3061C69 80.1024 69.784 83.7788 71.33 87.2346C73.168 91.3449 77.227 94 81.669 94C85.329 94 88.784 92.1933 90.911 89.1673L91.289 88.6298C92.408 87.0385 92.999 85.1627 92.999 83.2067C93 80.0811 91.472 77.179 88.912 75.4445ZM71 53.7745C71 50.2699 71.724 46.876 73.151 43.6874C74.665 40.3006 78.009 38.1129 81.669 38.1129C84.685 38.1129 87.531 39.6015 89.284 42.0961L89.661 42.6316C90.538 43.8774 91 45.3437 91 46.874C91 49.3188 89.805 51.5888 87.802 52.9453L71.75 63.8189L71.67 63.7651L68.942 60.5104C70.267 58.5361 71 56.1675 71 53.7745ZM67 67.16L64.414 64.5323H60.541L44.282 39.2642L44.705 38.8344C45.664 37.8579 47.383 37.927 48.265 38.9797L69.64 64.4764L67 67.16ZM58.478 65.0403L54 72.0008V67.16L49.414 62.5L53.906 57.9355L58.478 65.0403ZM52 91.9677H33V63.5161H36V61.4839H33V33.0323H52V40.3016L49.787 37.6617C48.945 36.6568 47.717 36.0806 46.418 36.0806C45.235 36.0806 44.125 36.5481 43.29 37.3975L41.718 38.9939L52 54.9725V56.9987L47.586 61.4839H44V63.5161H47.586L52 68.0013V91.9677ZM54 75.7127L59.887 66.5645H63.586L66.244 69.2654L66.397 69.4727L54 84.2604V75.7127ZM89.663 87.448L89.285 87.9855C87.532 90.4791 84.685 91.9677 81.669 91.9677C78.008 91.9677 74.665 89.78 73.15 86.3933C71.724 83.2046 71 79.8108 71 76.3061C71 73.7374 70.165 71.1909 68.648 69.1363L68.32 68.6923L71.127 65.84L87.802 77.1353C89.805 78.4918 91 80.7619 91 83.2067C91 84.737 90.538 86.2032 89.663 87.448Z" fill="#F2F2F2"/>
<path d="M86.692 78.8261L73.491 69.8832C73.127 69.6373 72.646 69.6586 72.306 69.9401C71.966 70.2195 71.845 70.693 72.007 71.1056C72.666 72.7791 73 74.5289 73 76.3061C73 79.5191 73.664 82.6305 74.971 85.5519C76.162 88.2152 78.792 89.9355 81.67 89.9355C84.042 89.9355 86.28 88.7659 87.657 86.8058L88.038 86.2642C88.667 85.3669 89 84.3102 89 83.2066C89 81.4426 88.137 79.8047 86.692 78.8261ZM86.41 85.0834L86.03 85.624C85.027 87.0507 83.397 87.9032 81.67 87.9032C79.574 87.9032 77.66 86.6503 76.792 84.7095C75.603 82.0544 75 79.2265 75 76.3061C75 75.2372 74.895 74.1773 74.686 73.1358L85.583 80.518C86.47 81.1185 87 82.1235 87 83.2066C87 83.8844 86.796 84.5347 86.41 85.0834Z" fill="#F2F2F2"/>
<path d="M72.937 60.3671C73.13 60.3671 73.323 60.3102 73.492 60.1964L86.693 51.2535C88.137 50.2759 89 48.6379 89 46.8739C89 45.7704 88.667 44.7137 88.037 43.8144L87.658 43.2758C86.28 41.3147 84.042 40.1451 81.67 40.1451C78.792 40.1451 76.162 41.8654 74.972 44.5287C73.664 47.4501 73 50.5615 73 53.7745C73 55.5517 72.666 57.3015 72.008 58.974C71.845 59.3866 71.966 59.8601 72.307 60.1395C72.489 60.2909 72.712 60.3671 72.937 60.3671ZM75 53.7745C75 50.8541 75.603 48.0262 76.792 45.3701C77.66 43.4303 79.574 42.1774 81.67 42.1774C83.397 42.1774 85.027 43.0299 86.03 44.4576L86.409 44.9951C86.796 45.5459 87 46.1962 87 46.8739C87 47.9561 86.47 48.9621 85.583 49.5626L74.686 56.9448C74.895 55.9033 75 54.8434 75 53.7745Z" fill="#F2F2F2"/>
<path d="M63 60.4678H61V62.5H63V60.4678Z" fill="#F2F2F2"/>
<path d="M42 61.4839H38V63.5161H42V61.4839Z" fill="#F2F2F2"/>
</svg>
