<svg width="40" height="40" viewBox="0 0 40 40" fill="none" xmlns="http://www.w3.org/2000/svg">
<g clip-path="url(#clip0_2453_4952)">
<path fill-rule="evenodd" clip-rule="evenodd" d="M20.006 0C31.0471 0 40.012 8.95289 40.012 20.006C40.012 31.0471 31.0591 40.012 20.006 40.012C8.9649 40.012 0 31.0591 0 20.006C0 8.9649 8.95289 0 20.006 0ZM15.3255 9.0249H24.6865C28.2028 9.0249 31.0711 11.8692 31.0711 15.3255V24.6625C31.0711 28.1308 28.2028 30.9631 24.6865 30.9631H15.3255C11.8092 30.9631 8.94089 28.1308 8.94089 24.6625V15.3255C8.94089 11.8572 11.8212 9.0249 15.3255 9.0249ZM19.946 14.0774C23.3663 14.0774 26.1386 16.8497 26.1386 20.27C26.1386 23.6904 23.3663 26.4626 19.946 26.4626C16.5257 26.4626 13.7534 23.6904 13.7534 20.27C13.7534 16.8497 16.5257 14.0774 19.946 14.0774ZM19.946 16.1656C22.2022 16.1656 24.0384 18.0018 24.0384 20.258C24.0384 22.5143 22.2022 24.3504 19.946 24.3504C17.6778 24.3504 15.8536 22.5143 15.8536 20.258C15.8536 18.0018 17.6898 16.1656 19.946 16.1656ZM25.9346 13.2133C26.4866 13.2133 26.9427 13.6574 26.9427 14.2214C26.9427 14.7735 26.4986 15.2295 25.9346 15.2295C25.3825 15.2295 24.9265 14.7855 24.9265 14.2214C24.9265 13.6694 25.3705 13.2133 25.9346 13.2133ZM16.0936 10.8131H23.9184C26.8587 10.8131 29.2589 13.2013 29.2589 16.1296V24.0024C29.2589 26.9307 26.8587 29.3189 23.9184 29.3189H16.0936C13.1533 29.3189 10.7531 26.9307 10.7531 24.0024V16.1296C10.7531 13.2013 13.1533 10.8131 16.0936 10.8131Z" fill="#3D3D3C"/>
</g>
<defs>
<clipPath id="clip0_2453_4952">
<rect width="40" height="40" fill="white"/>
</clipPath>
</defs>
</svg>
